<svg width="19" height="19" viewBox="0 0 19 19" fill="none" xmlns="http://www.w3.org/2000/svg">
<path d="M7.91667 4.75V6.33333H3.95833V15.0417H12.6667V11.0833H14.25V15.8333C14.25 16.0433 14.1666 16.2447 14.0181 16.3931C13.8697 16.5416 13.6683 16.625 13.4583 16.625H3.16667C2.9567 16.625 2.75534 16.5416 2.60687 16.3931C2.45841 16.2447 2.375 16.0433 2.375 15.8333V5.54167C2.375 5.3317 2.45841 5.13034 2.60687 4.98187C2.75534 4.83341 2.9567 4.75 3.16667 4.75H7.91667ZM16.625 2.375V8.70833H15.0417V5.07696L8.87221 11.2472L7.75279 10.1278L13.9215 3.95833H10.2917V2.375H16.625Z" fill="#21272F"/>
</svg>
