<svg width="19" height="16" viewBox="0 0 19 16" fill="none" xmlns="http://www.w3.org/2000/svg">
<path d="M5.02308 5.22469L2.28144 7.54786L5.02308 9.87104C5.114 9.94681 5.18928 10.0401 5.24456 10.1457C5.29984 10.2512 5.33403 10.3668 5.34517 10.4858C5.35631 10.6048 5.34416 10.7249 5.30944 10.8391C5.27472 10.9533 5.21811 11.0594 5.14287 11.1512C5.06763 11.2431 4.97525 11.3189 4.87106 11.3743C4.76688 11.4296 4.65294 11.4635 4.53583 11.4739C4.41871 11.4842 4.30074 11.4709 4.18871 11.4347C4.07667 11.3985 3.9728 11.3401 3.88308 11.2628L0.32058 8.24376C0.220245 8.15876 0.139518 8.05236 0.0841175 7.9321C0.0287173 7.81184 0 7.68067 0 7.54786C0 7.41506 0.0287173 7.28389 0.0841175 7.16363C0.139518 7.04337 0.220245 6.93697 0.32058 6.85197L3.88308 3.8329C4.06482 3.68144 4.29806 3.60915 4.53198 3.63178C4.7659 3.65442 4.98154 3.77015 5.13193 3.95375C5.28232 4.13736 5.35526 4.37396 5.33488 4.61202C5.31449 4.85007 5.20242 5.07029 5.02308 5.22469ZM18.0856 6.85197L14.5231 3.8329C14.4334 3.75566 14.3295 3.69724 14.2175 3.66102C14.1054 3.62479 13.9874 3.61149 13.8703 3.62186C13.7532 3.63223 13.6393 3.66608 13.5351 3.72145C13.4309 3.77683 13.3385 3.85263 13.2633 3.94448C13.1881 4.03634 13.1314 4.14244 13.0967 4.25665C13.062 4.37087 13.0499 4.49095 13.061 4.60996C13.0721 4.72897 13.1063 4.84457 13.1616 4.95007C13.2169 5.05558 13.2922 5.14891 13.3831 5.22469L16.1247 7.54786L13.3831 9.87104C13.2922 9.94681 13.2169 10.0401 13.1616 10.1457C13.1063 10.2512 13.0721 10.3668 13.061 10.4858C13.0499 10.6048 13.062 10.7249 13.0967 10.8391C13.1314 10.9533 13.1881 11.0594 13.2633 11.1512C13.3385 11.2431 13.4309 11.3189 13.5351 11.3743C13.6393 11.4296 13.7532 11.4635 13.8703 11.4739C13.9874 11.4842 14.1054 11.4709 14.2175 11.4347C14.3295 11.3985 14.4334 11.3401 14.5231 11.2628L18.0856 8.24376C18.1859 8.15876 18.2666 8.05236 18.322 7.9321C18.3774 7.81184 18.4062 7.68067 18.4062 7.54786C18.4062 7.41506 18.3774 7.28389 18.322 7.16363C18.2666 7.04337 18.1859 6.93697 18.0856 6.85197ZM11.8824 0.0545383C11.7724 0.0138795 11.6557 -0.00435513 11.5388 0.000876093C11.422 0.00610732 11.3072 0.034702 11.2012 0.0850265C11.0952 0.135351 11 0.20642 10.921 0.294173C10.8421 0.381926 10.7808 0.484645 10.7409 0.596461L5.99089 13.8804C5.91038 14.1061 5.92128 14.355 6.0212 14.5726C6.12113 14.7901 6.3019 14.9584 6.52378 15.0404C6.6212 15.077 6.72424 15.0957 6.82808 15.0955C7.01094 15.0956 7.18937 15.0384 7.33915 14.9317C7.48893 14.825 7.60279 14.674 7.66527 14.4993L12.4153 1.21537C12.4552 1.10357 12.4732 0.984849 12.468 0.865998C12.4629 0.747146 12.4348 0.63049 12.3853 0.522692C12.3358 0.414893 12.2659 0.318065 12.1796 0.237739C12.0933 0.157412 11.9923 0.0951596 11.8824 0.0545383Z" fill="#00A17F"/>
</svg>
