<svg width="19" height="16" viewBox="0 0 19 16" fill="none" xmlns="http://www.w3.org/2000/svg">
<path d="M5.31999 5.33773L2.57835 7.6609L5.31999 9.98407C5.41091 10.0599 5.48618 10.1532 5.54146 10.2587C5.59675 10.3642 5.63094 10.4798 5.64208 10.5988C5.65321 10.7178 5.64107 10.8379 5.60635 10.9521C5.57163 11.0663 5.51501 11.1724 5.43977 11.2643C5.36453 11.3561 5.27216 11.4319 5.16797 11.4873C5.06378 11.5427 4.94985 11.5765 4.83273 11.5869C4.71562 11.5973 4.59764 11.584 4.48561 11.5478C4.37358 11.5115 4.26971 11.4531 4.17999 11.3759L0.617486 8.3568C0.517151 8.2718 0.436423 8.1654 0.381023 8.04514C0.325623 7.92488 0.296906 7.7937 0.296906 7.6609C0.296906 7.5281 0.325623 7.39692 0.381023 7.27666C0.436423 7.1564 0.517151 7.05001 0.617486 6.96501L4.17999 3.94594C4.36173 3.79447 4.59496 3.72218 4.82888 3.74482C5.0628 3.76746 5.27845 3.88318 5.42883 4.06679C5.57922 4.25039 5.65217 4.487 5.63178 4.72505C5.61139 4.96311 5.49932 5.18333 5.31999 5.33773ZM18.3825 6.96501L14.82 3.94594C14.7303 3.86869 14.6264 3.81027 14.5144 3.77405C14.4023 3.73783 14.2844 3.72452 14.1672 3.7349C14.0501 3.74527 13.9362 3.77912 13.832 3.83449C13.7278 3.88986 13.6354 3.96566 13.5602 4.05752C13.485 4.14938 13.4283 4.25547 13.3936 4.36969C13.3589 4.48391 13.3468 4.60398 13.3579 4.723C13.369 4.84201 13.4032 4.9576 13.4585 5.06311C13.5138 5.16862 13.5891 5.26195 13.68 5.33773L16.4216 7.6609L13.68 9.98407C13.5891 10.0599 13.5138 10.1532 13.4585 10.2587C13.4032 10.3642 13.369 10.4798 13.3579 10.5988C13.3468 10.7178 13.3589 10.8379 13.3936 10.9521C13.4283 11.0663 13.485 11.1724 13.5602 11.2643C13.6354 11.3561 13.7278 11.4319 13.832 11.4873C13.9362 11.5427 14.0501 11.5765 14.1672 11.5869C14.2844 11.5973 14.4023 11.584 14.5144 11.5478C14.6264 11.5115 14.7303 11.4531 14.82 11.3759L18.3825 8.3568C18.4828 8.2718 18.5635 8.1654 18.6189 8.04514C18.6743 7.92488 18.7031 7.7937 18.7031 7.6609C18.7031 7.5281 18.6743 7.39692 18.6189 7.27666C18.5635 7.1564 18.4828 7.05001 18.3825 6.96501ZM12.1793 0.167575C12.0693 0.126917 11.9526 0.108682 11.8357 0.113913C11.7189 0.119144 11.6042 0.147739 11.4981 0.198064C11.3921 0.248388 11.2969 0.319457 11.2179 0.40721C11.139 0.494963 11.0777 0.597682 11.0378 0.709498L6.2878 13.9934C6.20728 14.2191 6.21819 14.4681 6.31811 14.6856C6.41804 14.9031 6.59881 15.0714 6.82069 15.1535C6.9181 15.1901 7.02114 15.2087 7.12499 15.2086C7.30784 15.2086 7.48628 15.1514 7.63606 15.0447C7.78584 14.938 7.8997 14.7871 7.96217 14.6123L12.7122 1.32841C12.7522 1.2166 12.7701 1.09789 12.7649 0.979035C12.7598 0.860183 12.7317 0.743527 12.6822 0.635729C12.6327 0.52793 12.5628 0.431103 12.4765 0.350776C12.3902 0.270449 12.2892 0.208197 12.1793 0.167575Z" fill="#00BD95"/>
</svg>
