<svg width="30" height="29" viewBox="0 0 30 29" fill="none" xmlns="http://www.w3.org/2000/svg">
<g clip-path="url(#clip0_674_303)">
<path d="M28.3073 12.9785L16.0541 0.725758C15.3489 0.020125 14.2044 0.020125 13.4981 0.725758L10.9539 3.27039L14.1815 6.49799C14.9318 6.24477 15.7918 6.41462 16.3896 7.01243C16.9905 7.61401 17.159 8.48127 16.8996 9.23404L20.0102 12.3449C20.7628 12.0855 21.6314 12.2531 22.2321 12.8551C23.0724 13.6948 23.0724 15.0561 22.2321 15.8962C22.0324 16.096 21.7952 16.2545 21.5343 16.3626C21.2733 16.4708 20.9936 16.5264 20.7111 16.5264C20.4286 16.5264 20.1489 16.4708 19.8879 16.3626C19.6269 16.2545 19.3898 16.096 19.1901 15.8962C18.8901 15.596 18.6855 15.2137 18.6023 14.7975C18.519 14.3813 18.5607 13.9498 18.7221 13.5572L15.8213 10.6564L15.8209 18.291C16.0314 18.3946 16.2235 18.5319 16.3898 18.6974C17.2297 19.5371 17.2297 20.8979 16.3898 21.7393C15.5497 22.579 14.188 22.579 13.3487 21.7393C12.5088 20.8981 12.5088 19.5373 13.3487 18.6974C13.55 18.4958 13.7893 18.3364 14.0528 18.2283V10.523C13.7891 10.4152 13.5497 10.2557 13.3487 10.0537C12.7125 9.41789 12.5593 8.48416 12.8856 7.7025L9.70363 4.52048L1.30184 12.9218C0.962879 13.2609 0.772461 13.7207 0.772461 14.2001C0.772461 14.6796 0.962879 15.1394 1.30184 15.4785L13.5553 27.7312C14.2609 28.4368 15.4049 28.4368 16.1117 27.7312L28.3075 15.5354C28.6464 15.1962 28.8368 14.7364 28.8367 14.2569C28.8367 13.7774 28.6463 13.3176 28.3073 12.9785Z" fill="#F34F29"/>
</g>
<defs>
<clipPath id="clip0_674_303">
<rect width="28.4565" height="28.4565" fill="white" transform="translate(0.576172)"/>
</clipPath>
</defs>
</svg>
