<svg width="32" height="32" viewBox="0 0 32 32" fill="none" xmlns="http://www.w3.org/2000/svg">
<mask id="mask0_674_293" style="mask-type:luminance" maskUnits="userSpaceOnUse" x="0" y="0" width="32" height="32">
<path d="M0.982422 0H31.7443V31.6163H0.982422V0Z" fill="white"/>
</mask>
<g mask="url(#mask0_674_293)">
<path fill-rule="evenodd" clip-rule="evenodd" d="M16.3634 0C7.86539 0 0.982422 7.07415 0.982422 15.8082C0.982422 22.8033 5.38521 28.7116 11.4991 30.8062C12.2682 30.9445 12.5566 30.4702 12.5566 30.0553C12.5566 29.6798 12.5373 28.4349 12.5373 27.111C8.67289 27.8421 7.67313 26.1428 7.36551 25.2535C7.19247 24.7991 6.44265 23.3961 5.78896 23.0206C5.25063 22.7242 4.48158 21.9931 5.76974 21.9734C6.98099 21.9536 7.84616 23.1194 8.13456 23.5937C9.51884 25.9847 11.7298 25.3128 12.6143 24.8979C12.7488 23.8703 13.1526 23.1787 13.5948 22.7835C10.1725 22.3883 6.59646 21.0249 6.59646 14.9782C6.59646 13.2591 7.19247 11.8364 8.17301 10.7298C8.0192 10.3346 7.48087 8.71425 8.32682 6.54063C8.32682 6.54063 9.61497 6.12567 12.5566 8.16097C13.7871 7.80528 15.0944 7.62744 16.4018 7.62744C17.7092 7.62744 19.0166 7.80528 20.247 8.16097C23.1886 6.10591 24.4768 6.54063 24.4768 6.54063C25.3228 8.71425 24.7844 10.3346 24.6306 10.7298C25.6111 11.8364 26.2072 13.2393 26.2072 14.9782C26.2072 21.0446 22.6119 22.3883 19.1896 22.7835C19.7472 23.2775 20.2278 24.226 20.2278 25.708C20.2278 27.8224 20.2086 29.5218 20.2086 30.0553C20.2086 30.4702 20.497 30.9642 21.266 30.8062C24.3194 29.7467 26.9726 27.7297 28.8522 25.0393C30.7319 22.3489 31.7434 19.1204 31.7443 15.8082C31.7443 7.07415 24.8613 0 16.3634 0Z" fill="white"/>
</g>
</svg>
