<svg width="32" height="34" viewBox="0 0 32 34" fill="none" xmlns="http://www.w3.org/2000/svg">
<g clip-path="url(#clip0_947_675)">
<path d="M0 1H32V33H0V1Z" fill="#F7DF1E"/>
<path d="M8.41394 27.7414L10.8627 26.2594C11.3352 27.097 11.7649 27.8058 12.7958 27.8058C13.7839 27.8058 14.4071 27.4193 14.4071 25.9158V15.691H17.4142V25.9583C17.4142 29.0729 15.5884 30.4907 12.9247 30.4907C10.5191 30.4907 9.12269 29.2448 8.41382 27.7412M19.0476 27.4192L21.4961 26.0015C22.1407 27.0542 22.9784 27.8274 24.4604 27.8274C25.7066 27.8274 26.5011 27.2044 26.5011 26.3452C26.5011 25.3142 25.6848 24.9489 24.3101 24.3477L23.5584 24.0252C21.3888 23.1018 19.9497 21.9418 19.9497 19.493C19.9497 17.2375 21.6681 15.519 24.3532 15.519C26.2649 15.519 27.6397 16.185 28.6277 17.9249L26.2862 19.4287C25.7706 18.505 25.2123 18.1399 24.3531 18.1399C23.4723 18.1399 22.9138 18.6984 22.9138 19.4287C22.9138 20.3308 23.4723 20.6962 24.7611 21.2547L25.5128 21.5768C28.0691 22.6724 29.5082 23.7893 29.5082 26.3023C29.5082 29.009 27.3817 30.491 24.5248 30.491C21.7324 30.491 19.9281 29.1593 19.0474 27.4193" fill="black"/>
</g>
<defs>
<clipPath id="clip0_947_675">
<rect width="32" height="32" fill="white" transform="translate(0 1)"/>
</clipPath>
</defs>
</svg>
