<svg width="38" height="34" viewBox="0 0 38 34" fill="none" xmlns="http://www.w3.org/2000/svg">
<g clip-path="url(#clip0_947_682)">
<path d="M32.698 19.2624C31.376 19.27 30.227 19.6245 29.2649 20.1485C28.9118 19.3702 28.5588 18.6768 28.4966 18.1681C28.4273 17.5749 28.3443 17.2127 28.4273 16.5037C28.5104 15.7948 28.8842 14.7853 28.8772 14.7083C28.8704 14.6313 28.7941 14.2691 28.0328 14.2615C27.2714 14.2537 26.6138 14.4232 26.5377 14.6467C26.4616 14.8701 26.3162 15.3787 26.2193 15.9026C26.0878 16.6733 24.6966 19.4241 23.9007 20.865C23.6445 20.3027 23.423 19.8094 23.3745 19.4165C23.3053 18.8232 23.2222 18.461 23.3053 17.752C23.3884 17.0431 23.7622 16.0338 23.7552 15.9566C23.7483 15.8796 23.6721 15.5174 22.9108 15.5098C22.1493 15.502 21.4917 15.6715 21.4157 15.895C21.3396 16.1185 21.2564 16.6424 21.0973 17.151C20.938 17.6597 19.09 22.2523 18.6055 23.4388C18.4097 23.9191 18.2043 24.3944 17.9895 24.8644C17.9895 24.8644 17.9825 24.8876 17.9617 24.9261C17.8942 25.0735 17.8251 25.2199 17.7542 25.3653V25.3729C17.6503 25.5811 17.5396 25.7736 17.4842 25.7736C17.4426 25.7736 17.3665 25.2189 17.498 24.4637C17.7748 22.8687 18.4324 20.3875 18.4256 20.3027C18.4256 20.2564 18.5501 19.825 17.9965 19.6014C17.4564 19.3779 17.2627 19.7478 17.2142 19.7478C17.1658 19.7478 17.1311 19.8788 17.1311 19.8788C17.1311 19.8788 17.7334 17.0894 15.9822 17.0894C14.8886 17.0894 13.3796 18.4225 12.6321 19.6245C11.7823 20.1393 10.9332 20.6556 10.0849 21.1734C9.67669 21.4277 9.25438 21.682 8.85983 21.9208C8.83208 21.8901 8.80447 21.8514 8.77671 21.8207C6.65865 19.3009 2.74109 17.5209 2.90719 14.1382C2.96954 12.9052 3.35013 9.6688 10.431 5.73897C16.259 2.54104 20.8966 3.42711 21.6995 5.39211C22.8484 8.19708 19.2147 13.4061 13.1927 14.1611C10.8948 14.4464 9.69034 13.46 9.3859 13.0902C9.0675 12.7048 9.01896 12.6817 8.90125 12.7588C8.70754 12.8745 8.83208 13.2212 8.90125 13.4215C9.0813 13.9453 9.82186 14.8701 11.0747 15.3248C12.1822 15.7254 14.8747 15.949 18.1348 14.5465C21.7825 12.9745 24.6343 8.60541 23.7968 4.94527C22.9592 1.2311 17.4219 0.00592774 12.1822 2.07867C9.0675 3.31177 5.68965 5.25347 3.26018 7.78098C0.37381 10.7861 -0.0830802 13.3983 0.103803 14.4926C0.775334 18.3762 5.5859 20.9037 7.51009 22.7762C7.41316 22.8378 7.32306 22.8918 7.24706 22.9381C6.28489 23.4697 2.6164 25.6041 1.70277 27.8619C0.664599 30.4202 1.86902 32.2543 2.66494 32.5007C5.13598 33.2636 7.67619 31.8921 9.03974 29.6265C10.4033 27.361 10.2372 24.4174 9.60736 23.069C9.60039 23.0536 9.59356 23.0381 9.57961 23.0227C9.82883 22.8609 10.0849 22.6914 10.3341 22.5296C10.7922 22.2282 11.256 21.9378 11.7254 21.6587C11.49 22.3754 11.3169 23.2308 11.2339 24.4637C11.13 25.9125 11.6629 27.7925 12.3621 28.5322C12.6736 28.8561 13.0404 28.8637 13.2758 28.8637C14.0926 28.8637 14.4595 28.1085 14.8678 27.2146C15.3661 26.1205 15.8161 24.8491 15.8161 24.8491C15.8161 24.8491 15.2554 28.2858 16.7782 28.2858C17.3319 28.2858 17.8926 27.4843 18.1418 27.076V27.0836C18.1418 27.0836 18.1556 27.0605 18.1833 27.0066C18.2387 26.9064 18.2733 26.8446 18.2733 26.8446V26.8294C18.4948 26.3978 18.9932 25.4192 19.7338 23.7933C20.689 21.6974 21.6096 19.0775 21.6096 19.0775C21.6096 19.0775 21.6927 19.717 21.9764 20.7804C22.1426 21.4046 22.4885 22.0904 22.7655 22.753C22.544 23.0999 22.4055 23.2924 22.4055 23.2924L22.4125 23.3002C22.2324 23.5621 22.0387 23.8472 21.8241 24.1248C21.0696 25.1264 20.1699 26.2747 20.0452 26.6059C19.8997 26.9988 19.9345 27.284 20.2114 27.5152C20.4121 27.6848 20.7719 27.7077 21.1389 27.6848C21.8172 27.6307 22.2948 27.4458 22.53 27.3303C22.897 27.1839 23.3261 26.9603 23.7275 26.629C24.4682 26.0202 24.9179 25.1495 24.8765 24.0015C24.8558 23.3696 24.6689 22.7377 24.4404 22.1442C24.5097 22.0365 24.5719 21.9286 24.6413 21.8207C25.8109 19.9173 26.7178 17.8291 26.7178 17.8291C26.7178 17.8291 26.8009 18.4686 27.0845 19.5321C27.223 20.0715 27.5068 20.6572 27.7559 21.2273C26.6554 22.2214 25.9771 23.3772 25.7348 24.1324C25.2988 25.5349 25.6379 26.1666 26.2816 26.313C26.5723 26.3824 26.9876 26.2283 27.2922 26.0818C27.6798 25.9432 28.1367 25.7044 28.5728 25.3498C29.3135 24.7412 30.0263 23.8934 29.9847 22.7454C29.9639 22.2214 29.8394 21.705 29.6663 21.2041C30.6007 20.7728 31.8052 20.5339 33.3416 20.7342C36.6365 21.1656 37.2871 23.4542 37.1624 24.4176C37.0379 25.3807 36.3457 25.9047 36.1174 26.0665C35.8888 26.2284 35.8128 26.2823 35.8336 26.3978C35.8612 26.5673 35.9719 26.5597 36.1658 26.5288C36.4358 26.475 37.8963 25.7505 37.9585 23.9782C38.0624 21.7128 36.1242 19.2393 32.698 19.2624ZM7.28165 28.802C6.18796 30.1273 4.66529 30.6282 4.00771 30.2045C3.30174 29.7497 3.57858 27.7925 4.92134 26.3902C5.73804 25.5349 6.79017 24.741 7.48931 24.2557C7.64843 24.1477 7.88386 23.9937 8.16767 23.8011C8.21606 23.7701 8.24382 23.7548 8.24382 23.7548L8.40992 23.6391C8.90125 25.6426 8.4307 27.4073 7.28165 28.802ZM15.2416 22.7762C14.8609 23.8088 14.0649 26.4518 13.5804 26.3054C13.1651 26.1821 12.9089 24.1786 13.4973 22.1983C13.7949 21.2041 14.4248 20.0175 14.7917 19.5553C15.3869 18.8154 16.0445 18.5687 16.2036 18.8695C16.4045 19.2624 15.4769 22.1289 15.2416 22.7762ZM21.8103 26.2745C21.651 26.3671 21.4988 26.4287 21.4295 26.3824C21.3811 26.3515 21.4988 26.2283 21.4988 26.2283C21.4988 26.2283 22.3225 25.242 22.6477 24.795C22.8348 24.5331 23.0561 24.2249 23.2915 23.8781V23.9782C23.2915 25.1573 22.267 25.951 21.8101 26.2745H21.8103ZM26.8769 24.9877C26.7592 24.8952 26.7799 24.587 27.1745 23.6237C27.3268 23.2461 27.6866 22.6144 28.3028 22.0056C28.3719 22.2522 28.4205 22.4911 28.4135 22.7145C28.4065 24.2018 27.4515 24.7565 26.8769 24.9877Z" fill="#CD6799"/>
</g>
<defs>
<clipPath id="clip0_947_682">
<rect width="38" height="31.7282" fill="white" transform="translate(0 1)"/>
</clipPath>
</defs>
</svg>
