<svg width="29" height="29" viewBox="0 0 29 29" fill="none" xmlns="http://www.w3.org/2000/svg">
<g clip-path="url(#clip0_674_286)">
<path d="M27.9875 4.33952L15.2172 27.1754C14.9533 27.647 14.2759 27.6496 14.0084 27.1808L0.984677 4.34219C0.692775 3.83041 1.12963 3.21126 1.70965 3.31464L14.4937 5.59939C14.5753 5.61428 14.6589 5.61428 14.7405 5.59939L27.2569 3.3182C27.8345 3.21304 28.274 3.82708 27.9875 4.33952Z" fill="url(#paint0_linear_674_286)"/>
<path d="M20.5828 0.317968L11.1331 2.16942C11.0576 2.18416 10.9892 2.22353 10.9386 2.28135C10.888 2.33918 10.858 2.41218 10.8534 2.48889L10.2716 12.3082C10.2685 12.362 10.2779 12.4159 10.2992 12.4654C10.3205 12.515 10.353 12.5589 10.3942 12.5937C10.4354 12.6285 10.4841 12.6533 10.5366 12.666C10.589 12.6787 10.6436 12.6791 10.6962 12.667L13.3275 12.0589C13.3842 12.0459 13.4432 12.0473 13.4992 12.0631C13.5552 12.0788 13.6063 12.1083 13.6479 12.1489C13.6895 12.1896 13.7203 12.24 13.7373 12.2956C13.7544 12.3512 13.7572 12.4102 13.7455 12.4671L12.9636 16.2952C12.9517 16.3541 12.9552 16.4151 12.9739 16.4723C12.9926 16.5294 13.0258 16.5807 13.0703 16.6211C13.1148 16.6616 13.169 16.6898 13.2277 16.703C13.2863 16.7162 13.3474 16.714 13.4049 16.6965L15.0296 16.2023C15.2815 16.1258 15.5238 16.3472 15.4709 16.6051L14.2281 22.6181C14.1508 22.9943 14.651 23.1992 14.8595 22.8769L14.9985 22.6617L22.6995 7.29293C22.8289 7.03504 22.6059 6.74158 22.3238 6.79627L19.6149 7.31916C19.5566 7.33049 19.4964 7.32663 19.44 7.30798C19.3836 7.28932 19.333 7.25648 19.293 7.21261C19.2529 7.16875 19.2249 7.11533 19.2114 7.05749C19.198 6.99965 19.1997 6.93932 19.2163 6.88231L20.9837 0.75482C21.0003 0.697606 21.0019 0.637075 20.9883 0.579064C20.9747 0.521053 20.9465 0.467518 20.9062 0.423619C20.8659 0.37972 20.815 0.346938 20.7584 0.328433C20.7017 0.309927 20.6413 0.306323 20.5828 0.317968Z" fill="url(#paint1_linear_674_286)"/>
</g>
<defs>
<linearGradient id="paint0_linear_674_286" x1="0.666364" y1="2.49865" x2="16.5606" y2="24.0843" gradientUnits="userSpaceOnUse">
<stop stop-color="#41D1FF"/>
<stop offset="1" stop-color="#BD34FE"/>
</linearGradient>
<linearGradient id="paint1_linear_674_286" x1="13.76" y1="0.820399" x2="16.6352" y2="20.5439" gradientUnits="userSpaceOnUse">
<stop stop-color="#FFEA83"/>
<stop offset="0.083" stop-color="#FFDD35"/>
<stop offset="1" stop-color="#FFA800"/>
</linearGradient>
<clipPath id="clip0_674_286">
<rect width="28.4565" height="28.4565" fill="white" transform="translate(0.25)"/>
</clipPath>
</defs>
</svg>
