<svg width="39" height="40" viewBox="0 0 39 40" fill="none" xmlns="http://www.w3.org/2000/svg">
<path d="M29.0567 5.87291C29.3153 6.22782 29.2771 6.71819 28.9666 7.02871L16.0709 19.9244C15.6804 20.3149 15.0472 20.3149 14.6567 19.9244L9.70693 14.9747C9.3164 14.5841 9.3164 13.951 9.70693 13.5605L16.0522 7.21517L17.2043 6.06303C17.3847 5.8827 17.6271 5.77808 17.882 5.77057L21.9218 5.65161L28.5729 5.5701V5.5701C28.7353 5.56671 28.8891 5.64291 28.9847 5.77416L29.0567 5.87291V5.87291Z" fill="#00A17F"/>
<path d="M33.1026 21.1848C32.7121 21.5753 32.0789 21.5753 31.6884 21.1848L22.496 11.9924L28.86 5.62845L38.0524 14.8208C38.4429 15.2114 38.4429 15.8445 38.0524 16.2351L33.1026 21.1848Z" fill="#00A17F"/>
<path d="M9.88791 33.2505C9.62517 32.8986 9.65772 32.4078 9.96462 32.0937L22.7099 19.0493C23.0959 18.6543 23.729 18.647 24.124 19.0329L29.1309 23.9249C29.5259 24.3109 29.5332 24.944 29.1473 25.3391L22.876 31.7575L21.7373 32.9229C21.559 33.1053 21.3179 33.2128 21.063 33.2232L17.0249 33.389L10.3752 33.5476V33.5476C10.2128 33.5529 10.0582 33.4785 9.96102 33.3484L9.88791 33.2505V33.2505Z" fill="#00A17F"/>
<path d="M5.66467 17.9866C6.05064 17.5915 6.68376 17.5842 7.07878 17.9702L16.3771 27.0553L10.0874 33.4927L0.789043 24.4075C0.394017 24.0215 0.386675 23.3884 0.772644 22.9934L5.66467 17.9866Z" fill="#00A17F"/>
</svg>
