<svg width="46" height="36" viewBox="0 0 46 36" fill="none" xmlns="http://www.w3.org/2000/svg">
<rect x="10.7683" y="5.64893" width="24.1845" height="24.3611" fill="#D9D9D9"/>
<path d="M9.38642 0C6.80786 0 4.89975 2.25693 4.98519 4.70451C5.06728 7.05588 4.96065 10.1015 4.19399 12.5851C3.42502 15.076 2.12435 16.6538 0 16.8564V19.1436C2.12435 19.3462 3.42502 20.924 4.19399 23.415C4.96065 25.8986 5.06728 28.9439 4.98519 31.2955C4.89975 33.7427 6.80786 36 9.38677 36H35.8085C38.3872 36 40.2948 33.7431 40.2093 31.2955C40.1274 28.9441 40.2339 25.8986 41.0005 23.415C41.77 20.9242 43.0672 19.346 45.1915 19.1436V16.8564C43.0672 16.6538 41.77 15.076 41.0007 12.5851C40.2339 10.1019 40.1274 7.05606 40.2093 4.70451C40.2948 2.25728 38.3872 0 35.8085 0H9.38607H9.38642ZM30.6384 22.1603C30.6384 25.5306 28.1247 27.5744 23.9529 27.5744H16.8511C16.648 27.5744 16.4532 27.4937 16.3096 27.35C16.166 27.2064 16.0854 27.0116 16.0854 26.8085V9.19153C16.0853 9.09093 16.1051 8.99131 16.1436 8.89836C16.1821 8.80541 16.2385 8.72095 16.3096 8.6498C16.3808 8.57866 16.4652 8.52222 16.5582 8.48372C16.6511 8.44521 16.7507 8.4254 16.8513 8.4254H23.9123C27.3908 8.4254 29.6737 10.3098 29.6737 13.2028C29.6737 15.2334 28.1379 17.0513 26.1814 17.3696V17.4757C28.8451 17.7679 30.6384 19.6124 30.6384 22.1603ZM23.1783 10.8536H19.1293V16.5731H22.5398C25.1761 16.5731 26.63 15.5115 26.63 13.6138C26.63 11.8356 25.3796 10.8536 23.1783 10.8536ZM19.1293 18.8426V25.1456H23.3275C26.0722 25.1456 27.5264 24.0442 27.5264 21.9742C27.5264 19.9039 26.0317 18.8422 23.1509 18.8422H19.1293V18.8426Z" fill="#7E13F8"/>
</svg>
