<svg width="20" height="29" viewBox="0 0 20 29" fill="none" xmlns="http://www.w3.org/2000/svg">
<g clip-path="url(#clip0_674_379)">
<path d="M4.85573 28.4565C7.48811 28.4565 9.62454 26.3317 9.62454 23.7137V18.9709H4.85573C2.22334 18.9709 0.0869141 21.0957 0.0869141 23.7137C0.0869141 26.3317 2.22334 28.4565 4.85573 28.4565Z" fill="#0ACF83"/>
<path d="M0.0869141 14.2283C0.0869141 11.6103 2.22334 9.4856 4.85573 9.4856H9.62454V18.9711H4.85573C2.22334 18.9711 0.0869141 16.8463 0.0869141 14.2283Z" fill="#A259FF"/>
<path d="M0.0869141 4.74275C0.0869141 2.12475 2.22334 0 4.85573 0H9.62454V9.48551H4.85573C2.22334 9.48551 0.0869141 7.36075 0.0869141 4.74275Z" fill="#F24E1E"/>
<path d="M9.62451 0H14.3933C17.0257 0 19.1621 2.12475 19.1621 4.74275C19.1621 7.36075 17.0257 9.48551 14.3933 9.48551H9.62451V0Z" fill="#FF7262"/>
<path d="M19.1621 14.2283C19.1621 16.8463 17.0257 18.9711 14.3933 18.9711C11.7609 18.9711 9.62451 16.8463 9.62451 14.2283C9.62451 11.6103 11.7609 9.4856 14.3933 9.4856C17.0257 9.4856 19.1621 11.6103 19.1621 14.2283Z" fill="#1ABCFE"/>
</g>
<defs>
<clipPath id="clip0_674_379">
<rect width="19.0753" height="28.4565" fill="white" transform="translate(0.0869141)"/>
</clipPath>
</defs>
</svg>
