<svg width="20" height="42" viewBox="0 0 20 42" fill="none" xmlns="http://www.w3.org/2000/svg">
<g clip-path="url(#clip0_623_173)">
<path d="M13.7205 4.67491C11.9228 2.58631 10.3748 0.464968 10.0585 0.0244656C10.051 0.0167348 10.042 0.0105798 10.032 0.00637421C10.0219 0.0021686 10.0111 0 10.0002 0C9.98935 0 9.97856 0.0021686 9.96854 0.00637421C9.95852 0.0105798 9.94948 0.0167348 9.94196 0.0244656C9.62571 0.465045 8.07767 2.58631 6.27993 4.67491C-9.1503 23.9456 8.71025 36.9506 8.71025 36.9506L8.86001 37.0486C8.99314 39.0555 9.32611 41.9438 9.32611 41.9438H10.6577C10.6577 41.9438 10.9906 39.0719 11.1238 37.0487L11.2736 36.9344C11.2902 36.9507 29.1508 23.9457 13.7205 4.67491ZM9.99189 36.6569C9.99189 36.6569 9.1929 35.9879 8.9765 35.6454V35.6126L9.94196 14.6285C9.94196 14.5633 10.0419 14.5633 10.0419 14.6285L11.0073 35.6126V35.6454C10.7909 35.9879 9.99189 36.657 9.99189 36.657" fill="#01EC64"/>
</g>
<defs>
<clipPath id="clip0_623_173">
<rect width="20" height="42" fill="white"/>
</clipPath>
</defs>
</svg>
