<svg width="37" height="34" viewBox="0 0 37 34" fill="none" xmlns="http://www.w3.org/2000/svg">
<g clip-path="url(#clip0_947_684)">
<path d="M30.4214 11.6624C30.0276 11.5274 29.6305 11.4023 29.2304 11.2873C29.2976 11.0129 29.3595 10.7418 29.4144 10.4754C30.316 6.10196 29.7266 2.57859 27.7134 1.41853C25.7832 0.306423 22.6265 1.46605 19.4384 4.23867C19.1242 4.51241 18.817 4.79404 18.5171 5.0833C18.3162 4.89095 18.1119 4.70234 17.9041 4.51756C14.5628 1.553 11.2137 0.303534 9.20274 1.46692C7.27426 2.58249 6.70321 5.8947 7.5149 10.0395C7.59566 10.4501 7.68684 10.8584 7.78836 11.2643C7.31429 11.3989 6.85685 11.5422 6.41907 11.6947C2.50169 13.0596 0 15.1984 0 17.417C0 19.7084 2.68568 22.0067 6.7658 23.4003C7.09658 23.5128 7.43012 23.6171 7.7661 23.713C7.65698 24.1502 7.56011 24.5903 7.47559 25.0328C6.70177 29.1057 7.30605 32.3397 9.22933 33.4482C11.2158 34.5929 14.5498 33.4164 17.7961 30.5805C18.0594 30.35 18.3168 30.1129 18.5682 29.8695C18.8931 30.1827 19.2266 30.4868 19.5684 30.7814C22.7131 33.4854 25.8188 34.5773 27.7402 33.4658C29.7247 32.3177 30.3698 28.8436 29.5324 24.6169C29.4664 24.2857 29.3924 23.9562 29.3105 23.6287C29.5446 23.5593 29.7745 23.488 29.9985 23.4138C34.2402 22.0095 37 19.739 37 17.417C37 15.1904 34.4175 13.037 30.4214 11.6624ZM29.5014 21.9146C29.2991 21.9814 29.0915 22.046 28.8799 22.1088C28.4117 20.6274 27.7798 19.0523 27.0064 17.4247C27.7444 15.836 28.352 14.2809 28.8071 12.8091C29.1856 12.9186 29.5529 13.034 29.907 13.1558C33.3309 14.3337 35.4194 16.0751 35.4194 17.417C35.4194 18.8463 33.1639 20.7018 29.5014 21.9146ZM27.9818 24.9236C28.3521 26.7925 28.4049 28.4824 28.1596 29.8035C27.9393 30.9905 27.4962 31.7819 26.9481 32.0989C25.7822 32.7734 23.2886 31.8967 20.5993 29.5841C20.2814 29.3102 19.9712 29.0274 19.669 28.7363C20.7116 27.5969 21.7535 26.2723 22.7705 24.8011C24.5592 24.6426 26.249 24.3832 27.7815 24.0292C27.8553 24.3257 27.9221 24.6239 27.9818 24.9236ZM12.6141 31.9823C11.4749 32.3843 10.5675 32.3958 10.0191 32.0798C8.85196 31.4072 8.36677 28.8105 9.02858 25.3274C9.10725 24.9159 9.19733 24.5065 9.29871 24.0999C10.8143 24.435 12.4918 24.6759 14.2847 24.8212C15.3086 26.2608 16.3806 27.5839 17.461 28.7425C17.2314 28.9645 16.9963 29.1808 16.7561 29.3913C15.3205 30.6452 13.8819 31.5349 12.6141 31.9823ZM7.27715 21.9058C5.47296 21.2895 3.98299 20.4886 2.96173 19.6147C2.04396 18.8294 1.58074 18.0496 1.58074 17.417C1.58074 16.0706 3.58929 14.3534 6.93938 13.1862C7.34595 13.0447 7.77145 12.9111 8.21299 12.7857C8.67607 14.2907 9.28339 15.8643 10.0163 17.4554C9.27385 19.0702 8.65786 20.6689 8.1903 22.1916C7.88362 22.1038 7.57914 22.0085 7.27715 21.9058ZM9.06616 9.7361C8.37082 6.18501 8.83259 3.50627 9.99477 2.83394C11.2325 2.11786 13.9697 3.13884 16.8547 5.69871C17.0428 5.86602 17.2279 6.03671 17.4098 6.21071C16.3348 7.36428 15.2726 8.67758 14.2579 10.1086C12.5177 10.2698 10.852 10.5286 9.32053 10.8754C9.22618 10.4979 9.14136 10.1179 9.06616 9.7361ZM25.0263 13.6744C24.6646 13.05 24.2894 12.4335 23.9011 11.8253C25.0817 11.9745 26.2128 12.1725 27.2749 12.4146C26.9561 13.436 26.5586 14.5037 26.0908 15.5985C25.7488 14.9501 25.3939 14.3086 25.0263 13.6744ZM18.5178 7.33958C19.2468 8.12889 19.977 9.01005 20.6951 9.96618C19.2383 9.89742 17.779 9.89713 16.3221 9.96531C17.041 9.018 17.7773 8.13799 18.5178 7.33958ZM11.9675 13.6852C11.6045 14.3144 11.2562 14.9519 10.9229 15.5972C10.4628 14.5063 10.0689 13.4337 9.74733 12.3978C10.803 12.1618 11.9287 11.9688 13.1018 11.8224C12.7091 12.4343 12.3309 13.0556 11.9675 13.6852ZM13.1354 23.124C11.9235 22.9888 10.7809 22.8058 9.72551 22.5762C10.0521 21.5219 10.4547 20.4264 10.9248 19.3121C11.2594 19.9579 11.6091 20.5958 11.9737 21.2252C12.3486 21.8723 12.7368 22.506 13.1354 23.124ZM18.5614 27.6057C17.8122 26.798 17.0649 25.9044 16.3352 24.9434C17.0437 24.9711 17.7659 24.9853 18.5 24.9853C19.2542 24.9853 19.9997 24.9684 20.7334 24.9358C20.013 25.9141 19.2855 26.809 18.5614 27.6057ZM26.1057 19.2552C26.6003 20.3817 27.0171 21.4715 27.3481 22.5077C26.2753 22.7524 25.1171 22.9494 23.8967 23.0957C24.2877 22.4762 24.6664 21.849 25.0325 21.2144C25.4047 20.5694 25.7625 19.9161 26.1057 19.2552ZM23.6634 20.4252C23.1029 21.3981 22.5109 22.3526 21.8884 23.2871C20.7607 23.3669 19.6305 23.4065 18.5 23.406C17.3485 23.406 16.2285 23.3701 15.1501 23.3002C14.5113 22.3679 13.908 21.4118 13.3415 20.4339C12.7777 19.4612 12.2513 18.4674 11.763 17.4547C12.25 16.4418 12.775 15.4476 13.3369 14.4741L13.3368 14.4743C13.8984 13.5006 14.4969 12.5485 15.1308 11.6202C16.2311 11.537 17.3595 11.4937 18.4999 11.4937C19.6454 11.4937 20.7754 11.5374 21.8754 11.6212C22.5029 12.5481 23.0976 13.4969 23.6582 14.4657C24.2219 15.4371 24.7539 16.4265 25.2532 17.4323C24.759 18.4485 24.2287 19.4468 23.6634 20.4252ZM26.924 2.78686C28.1629 3.50092 28.6448 6.38042 27.8663 10.1565C27.8166 10.3974 27.7608 10.6428 27.7001 10.8917C26.1649 10.5375 24.498 10.2742 22.7528 10.1106C21.7362 8.66386 20.6827 7.34853 19.6252 6.20985C19.9023 5.94287 20.1861 5.68282 20.4762 5.42993C23.2078 3.05449 25.7608 2.11656 26.924 2.78686ZM18.5 14.1154C20.3247 14.1154 21.804 15.5936 21.804 17.417C21.804 19.2405 20.3247 20.7187 18.5 20.7187C16.6753 20.7187 15.196 19.2405 15.196 17.417C15.196 15.5936 16.6753 14.1154 18.5 14.1154Z" fill="#00D8FF"/>
</g>
<defs>
<clipPath id="clip0_947_684">
<rect width="37" height="32.93" fill="white" transform="translate(0 1)"/>
</clipPath>
</defs>
</svg>
