<svg width="19" height="20" viewBox="0 0 19 20" fill="none" xmlns="http://www.w3.org/2000/svg">
<path d="M5.31995 7.33785L2.57831 9.66102L5.31995 11.9842C5.41088 12.06 5.48615 12.1533 5.54143 12.2588C5.59671 12.3643 5.63091 12.4799 5.64204 12.5989C5.65318 12.7179 5.64104 12.838 5.60632 12.9522C5.5716 13.0665 5.51498 13.1725 5.43974 13.2644C5.3645 13.3563 5.27213 13.4321 5.16794 13.4874C5.06375 13.5428 4.94982 13.5767 4.8327 13.587C4.71559 13.5974 4.59761 13.5841 4.48558 13.5479C4.37355 13.5117 4.26968 13.4532 4.17996 13.376L0.617455 10.3569C0.51712 10.2719 0.436393 10.1655 0.380992 10.0453C0.325592 9.925 0.296875 9.79383 0.296875 9.66102C0.296875 9.52822 0.325592 9.39704 0.380992 9.27679C0.436393 9.15653 0.51712 9.05013 0.617455 8.96513L4.17996 5.94606C4.3617 5.7946 4.59493 5.72231 4.82885 5.74494C5.06277 5.76758 5.27841 5.8833 5.4288 6.06691C5.57919 6.25051 5.65214 6.48712 5.63175 6.72518C5.61136 6.96323 5.49929 7.18345 5.31995 7.33785ZM18.3825 8.96513L14.82 5.94606C14.7302 5.86881 14.6264 5.8104 14.5143 5.77417C14.4023 5.73795 14.2843 5.72465 14.1672 5.73502C14.0501 5.74539 13.9362 5.77924 13.832 5.83461C13.7278 5.88998 13.6354 5.96579 13.5602 6.05764C13.4849 6.1495 13.4283 6.2556 13.3936 6.36981C13.3589 6.48403 13.3467 6.60411 13.3579 6.72312C13.369 6.84213 13.4032 6.95773 13.4585 7.06323C13.5138 7.16874 13.589 7.26207 13.68 7.33785L16.4216 9.66102L13.68 11.9842C13.589 12.06 13.5138 12.1533 13.4585 12.2588C13.4032 12.3643 13.369 12.4799 13.3579 12.5989C13.3467 12.7179 13.3589 12.838 13.3936 12.9522C13.4283 13.0665 13.4849 13.1725 13.5602 13.2644C13.6354 13.3563 13.7278 13.4321 13.832 13.4874C13.9362 13.5428 14.0501 13.5767 14.1672 13.587C14.2843 13.5974 14.4023 13.5841 14.5143 13.5479C14.6264 13.5117 14.7302 13.4532 14.82 13.376L18.3825 10.3569C18.4828 10.2719 18.5635 10.1655 18.6189 10.0453C18.6743 9.925 18.703 9.79383 18.703 9.66102C18.703 9.52822 18.6743 9.39704 18.6189 9.27679C18.5635 9.15653 18.4828 9.05013 18.3825 8.96513ZM12.1793 2.1677C12.0693 2.12704 11.9526 2.1088 11.8357 2.11404C11.7188 2.11927 11.6041 2.14786 11.4981 2.19819C11.3921 2.24851 11.2969 2.31958 11.2179 2.40733C11.1389 2.49509 11.0777 2.5978 11.0378 2.70962L6.28777 15.9935C6.20725 16.2192 6.21815 16.4682 6.31808 16.6857C6.418 16.9033 6.59877 17.0715 6.82066 17.1536C6.91807 17.1902 7.02111 17.2088 7.12496 17.2087C7.30781 17.2087 7.48625 17.1515 7.63603 17.0448C7.78581 16.9382 7.89967 16.7872 7.96214 16.6124L12.7121 3.32853C12.7521 3.21673 12.7701 3.09801 12.7649 2.97916C12.7598 2.86031 12.7316 2.74365 12.6822 2.63585C12.6327 2.52805 12.5628 2.43122 12.4765 2.3509C12.3902 2.27057 12.2892 2.20832 12.1793 2.1677Z" fill="#EBECED"/>
</svg>
