<svg width="30" height="29" viewBox="0 0 30 29" fill="none" xmlns="http://www.w3.org/2000/svg">
<path d="M24.6427 0H5.36694C2.72107 0 0.576172 2.17043 0.576172 4.84779V23.623C0.576172 26.3003 2.72107 28.4708 5.36694 28.4708H24.6427C27.2886 28.4708 29.4335 26.3003 29.4335 23.623V4.84779C29.4335 2.17043 27.2886 0 24.6427 0Z" fill="#470137"/>
<path d="M15.7462 7.4873L12.1454 13.5012L15.9978 19.8871C16.0226 19.9319 16.0295 19.9843 16.0172 20.0341C16.0112 20.0553 15.9983 20.0605 15.9786 20.0613L15.9568 20.061L15.9301 20.0603C15.9157 20.0603 15.8996 20.061 15.8817 20.0639H13.1042L13.0496 20.063C12.8999 20.059 12.792 20.0374 12.7263 19.9263C12.4693 19.4196 12.2112 18.9136 11.9519 18.4082C11.72 17.9574 11.4817 17.5099 11.2372 17.066L11.1292 16.8704C10.8368 16.3445 10.5496 15.8156 10.2678 15.2838H10.2484C9.98814 15.8101 9.72031 16.3325 9.44503 16.8508C9.16739 17.3733 8.89313 17.8925 8.62226 18.4082C8.35122 18.9243 8.07375 19.4369 7.7899 19.9459C7.74425 20.0497 7.66839 20.0714 7.56277 20.0749L7.5188 20.0756H4.86675L4.85525 20.0759L4.81738 20.0793C4.7963 20.0806 4.78367 20.076 4.77961 20.0439C4.77234 19.9961 4.78269 19.9473 4.8087 19.9068L8.54482 13.697L4.90541 7.46791C4.86675 7.41589 4.86032 7.37346 4.88602 7.34061C4.90031 7.32387 4.91825 7.31073 4.93842 7.30222C4.95859 7.29371 4.98044 7.29006 5.00224 7.29156H7.73174C7.79126 7.28826 7.85077 7.29831 7.90601 7.32099C7.95223 7.34757 7.99202 7.38441 8.02212 7.42878C8.25444 7.9512 8.51258 8.47362 8.79653 8.99582C9.07828 9.51472 9.36544 10.0306 9.65797 10.5433C9.94601 11.0482 10.214 11.5644 10.4613 12.0909H10.4807C10.7342 11.5645 10.9956 11.0421 11.2647 10.5238C11.5291 10.0145 11.8002 9.50181 12.0777 8.98601C12.3517 8.47682 12.6195 7.96425 12.8811 7.4484C12.896 7.40004 12.9226 7.35624 12.9585 7.32099C13.0063 7.29649 13.0601 7.28629 13.1134 7.29156H15.6494C15.6727 7.28568 15.6972 7.28762 15.7194 7.29709C15.7415 7.30655 15.76 7.32304 15.7721 7.34406C15.7842 7.36507 15.7892 7.38949 15.7863 7.41364C15.7835 7.43779 15.773 7.46035 15.7564 7.47795L15.7463 7.48753L15.7462 7.4873ZM21.4354 20.3166L21.3019 20.3181C20.4109 20.3318 19.528 20.1445 18.7175 19.7697C17.9624 19.416 17.3313 18.8388 16.9075 18.1143C16.4801 17.3962 16.2608 16.5012 16.2497 15.4298L16.2493 15.3425C16.242 14.4435 16.4691 13.5584 16.9076 12.7764C17.3464 12.0024 17.9862 11.3647 18.7576 10.9324L18.824 10.8959C19.6627 10.4257 20.6758 10.1907 21.8633 10.1907L21.9151 10.1912L21.9744 10.1932L22.0409 10.1961L22.1149 10.2005L22.2391 10.2094L22.3798 10.2208L22.4827 10.2299V6.37082C22.4827 6.27957 22.5215 6.23372 22.5988 6.23372H25.038C25.0538 6.23143 25.0699 6.23289 25.085 6.23798C25.1001 6.24308 25.1138 6.25167 25.1251 6.26307C25.1364 6.27447 25.1449 6.28837 25.1499 6.30367C25.1549 6.31897 25.1564 6.33524 25.1541 6.35121V17.9283C25.1541 18.1227 25.1616 18.3321 25.1764 18.5561L25.2125 19.0643L25.2317 19.3582C25.2341 19.3989 25.2242 19.4394 25.2035 19.4744C25.1828 19.5093 25.1521 19.5372 25.1155 19.5542C24.4862 19.8197 23.8308 20.0167 23.1603 20.1417C22.591 20.248 22.0141 20.3065 21.4354 20.3166ZM22.4827 17.8891V12.5413C22.3781 12.5127 22.2712 12.493 22.1633 12.4826C22.0314 12.4691 21.899 12.4626 21.7664 12.463C21.2967 12.4582 20.8324 12.5656 20.4114 12.7764C20.0012 12.9827 19.651 13.2932 19.3951 13.6775C19.1395 14.0558 19.0073 14.5497 18.9986 15.1592L18.9982 15.2251C18.9887 15.652 19.0576 16.0771 19.2014 16.4786C19.3184 16.8023 19.5034 17.0963 19.7436 17.3406C19.9735 17.5653 20.2518 17.733 20.5566 17.8303C20.8785 17.9358 21.2151 17.9888 21.5535 17.9871C21.7341 17.9871 21.9018 17.9805 22.0568 17.9674C22.1804 17.958 22.303 17.9374 22.4229 17.9058L22.4827 17.8891Z" fill="#FF61F6"/>
</svg>
