<svg width="30" height="29" viewBox="0 0 30 29" fill="none" xmlns="http://www.w3.org/2000/svg">
<g clip-path="url(#clip0_674_358)">
<path d="M4.75861 25.3714L2.52344 0.300537H27.085L24.8476 25.3676L14.7893 28.1561L4.75861 25.3714Z" fill="#1572B6"/>
<path d="M14.8047 26.0248L22.9324 23.7714L24.8445 2.35034H14.8047V26.0248Z" fill="#33A9DC"/>
<path d="M14.8047 11.4335H18.8735L19.1545 8.28482H14.8047V5.20996H22.5151L22.4413 6.03498L21.6854 14.5084H14.8047V11.4335Z" fill="white"/>
<path d="M14.8227 19.4191L14.8091 19.4231L11.3848 18.4985L11.1658 16.0461H8.07959L8.51022 20.8742L14.8087 22.6223L14.8227 22.6183V19.4191Z" fill="#EBEBEB"/>
<path d="M18.6118 14.3784L18.2415 18.4962L14.812 19.4219V22.621L21.1156 20.8741L21.1618 20.3545L21.6967 14.3784H18.6118Z" fill="white"/>
<path d="M14.8152 5.20996V8.28482H7.38802L7.32644 7.59386L7.18638 6.03498L7.11279 5.20996H14.8152ZM14.8047 11.4339V14.5088H11.4235L11.3619 13.8178L11.2216 12.259L11.1483 11.4339H14.8047Z" fill="#EBEBEB"/>
</g>
<defs>
<clipPath id="clip0_674_358">
<rect width="28.4565" height="28.4565" fill="white" transform="translate(0.576172)"/>
</clipPath>
</defs>
</svg>
