<svg width="34" height="34" viewBox="0 0 34 34" fill="none" xmlns="http://www.w3.org/2000/svg">
<mask id="mask0_768_126" style="mask-type:luminance" maskUnits="userSpaceOnUse" x="0" y="0" width="34" height="34">
<path d="M0 0H34V33.4975H0V0Z" fill="white"/>
</mask>
<g mask="url(#mask0_768_126)">
<path fill-rule="evenodd" clip-rule="evenodd" d="M17 0C7.6075 0 0 7.49507 0 16.7488C0 24.1601 4.86625 30.4199 11.6237 32.6391C12.4737 32.7857 12.7925 32.2832 12.7925 31.8436C12.7925 31.4458 12.7712 30.1268 12.7712 28.7241C8.5 29.4987 7.395 27.6982 7.055 26.7561C6.86375 26.2746 6.035 24.7882 5.3125 24.3904C4.7175 24.0763 3.8675 23.3017 5.29125 23.2808C6.63 23.2598 7.58625 24.495 7.905 24.9975C9.435 27.5308 11.8787 26.8189 12.8562 26.3793C13.005 25.2906 13.4513 24.5579 13.94 24.1391C10.1575 23.7204 6.205 22.2758 6.205 15.8694C6.205 14.048 6.86375 12.5406 7.9475 11.3682C7.7775 10.9495 7.1825 9.23275 8.1175 6.9298C8.1175 6.9298 9.54125 6.49014 12.7925 8.64654C14.1525 8.2697 15.5975 8.08127 17.0425 8.08127C18.4875 8.08127 19.9325 8.2697 21.2925 8.64654C24.5437 6.4692 25.9675 6.9298 25.9675 6.9298C26.9025 9.23275 26.3075 10.9495 26.1375 11.3682C27.2213 12.5406 27.88 14.0271 27.88 15.8694C27.88 22.2968 23.9062 23.7204 20.1237 24.1391C20.74 24.6625 21.2712 25.6675 21.2712 27.2377C21.2712 29.4778 21.25 31.2783 21.25 31.8436C21.25 32.2832 21.5687 32.8066 22.4187 32.6391C25.7935 31.5166 28.726 29.3797 30.8035 26.5291C32.881 23.6786 33.999 20.258 34 16.7488C34 7.49507 26.3925 0 17 0Z" fill="black"/>
</g>
</svg>
