<svg width="30" height="29" viewBox="0 0 30 29" fill="none" xmlns="http://www.w3.org/2000/svg">
<g clip-path="url(#clip0_674_369)">
<path d="M4.80826 25.3166L2.58398 0.369385H27.0246L24.7979 25.3129L14.7894 28.0874L4.80826 25.3166Z" fill="#E44D26"/>
<path d="M14.8042 25.9665L22.8916 23.7242L24.7944 2.40894H14.8042V25.9665Z" fill="#F16529"/>
<path d="M14.8042 11.6616H10.7554L10.4757 8.52827H14.8042V5.46875H7.13184L7.2052 6.28954L7.95708 14.7213H14.8042V11.6616ZM14.8042 19.6079L14.7906 19.6116L11.3832 18.6913L11.1655 16.2513H8.0938L8.52243 21.0554L14.7902 22.7952L14.8042 22.7914V19.6079Z" fill="#EBEBEB"/>
<path d="M14.7939 11.6616V14.7213H18.5615L18.2065 18.6895L14.7939 19.6105V22.7939L21.0666 21.0554L21.1126 20.5385L21.8316 12.4833L21.9061 11.6616H21.0817H14.7939ZM14.7939 5.46875V8.52827H22.1846L22.246 7.84087L22.3856 6.28954L22.4588 5.46875H14.7939Z" fill="white"/>
</g>
<defs>
<clipPath id="clip0_674_369">
<rect width="28.4565" height="28.4565" fill="white" transform="translate(0.576172)"/>
</clipPath>
</defs>
</svg>
