<svg width="30" height="32" viewBox="0 0 30 32" fill="none" xmlns="http://www.w3.org/2000/svg">
<path d="M0.674805 0H29.4475V31.6163H0.674805V0Z" fill="#F7DF1E"/>
<path d="M8.24035 26.4208L10.4421 24.9566C10.867 25.7842 11.2534 26.4844 12.1803 26.4844C13.0688 26.4844 13.629 26.1025 13.629 24.6171V14.5149H16.3329V24.6591C16.3329 27.7363 14.6913 29.1371 12.2962 29.1371C10.1332 29.1371 8.87762 27.9062 8.24023 26.4206M17.8015 26.1024L20.0031 24.7018C20.5827 25.7418 21.336 26.5058 22.6685 26.5058C23.789 26.5058 24.5033 25.8902 24.5033 25.0413C24.5033 24.0227 23.7694 23.6618 22.5333 23.0677L21.8575 22.7491C19.9067 21.8368 18.6127 20.6907 18.6127 18.2713C18.6127 16.0429 20.1578 14.345 22.5721 14.345C24.291 14.345 25.5271 15.003 26.4155 16.722L24.3101 18.2077C23.8465 17.2952 23.3446 16.9344 22.572 16.9344C21.78 16.9344 21.2779 17.4862 21.2779 18.2077C21.2779 19.099 21.78 19.46 22.9388 20.0118L23.6147 20.3301C25.9132 21.4126 27.2072 22.5161 27.2072 24.9989C27.2072 27.6732 25.2951 29.1375 22.7264 29.1375C20.2156 29.1375 18.5932 27.8217 17.8014 26.1025" fill="black"/>
</svg>
