<svg width="35" height="32" viewBox="0 0 35 32" fill="none" xmlns="http://www.w3.org/2000/svg">
<path d="M29.0485 21.5202C29.1891 21.4317 29.3061 21.3043 29.3876 21.1507C29.4691 20.9972 29.5123 20.8228 29.5128 20.6452L29.5295 14.7843C29.53 14.6067 29.5731 14.4323 29.6546 14.2787C29.7361 14.1251 29.8531 13.9976 29.9938 13.9092L32.8955 12.0843C33.0361 11.9958 33.1955 11.9494 33.3577 11.9497C33.5199 11.95 33.6791 11.997 33.8195 12.0859C33.9599 12.1748 34.0764 12.3026 34.1575 12.4564C34.2385 12.6103 34.2812 12.7847 34.2812 12.9623V23.6175C34.2812 23.7957 34.2382 23.9707 34.1567 24.1249C34.0752 24.2791 33.9579 24.407 33.8168 24.4957L22.8659 31.3825C22.7261 31.4704 22.5676 31.5168 22.4063 31.517C22.2449 31.5172 22.0864 31.4711 21.9463 31.3835L13.3524 26.0016C13.2108 25.9131 13.0931 25.7851 13.0112 25.6308C12.9293 25.4764 12.8862 25.3011 12.8861 25.1226V19.7498C12.8861 19.7438 12.8926 19.7398 12.8982 19.7427C12.9027 19.7458 12.9092 19.7427 12.9092 19.7356V19.7296C12.9092 19.7256 12.9111 19.7215 12.9148 19.7195L19.9929 15.2674C19.9994 15.2633 19.9965 15.2522 19.9891 15.2522C19.9871 15.2522 19.9853 15.2513 19.9839 15.2498C19.9825 15.2483 19.9817 15.2462 19.9817 15.244L19.9956 9.97665C19.9963 9.79853 19.954 9.62336 19.8731 9.46883C19.7922 9.31429 19.6755 9.18586 19.5347 9.09649C19.394 9.00712 19.2342 8.95997 19.0716 8.9598C18.9089 8.95963 18.749 9.00645 18.6081 9.09552L13.3477 12.4145C13.2073 12.503 13.0481 12.5496 12.8861 12.5496C12.7241 12.5496 12.565 12.503 12.4246 12.4145L7.1475 9.08769C7.00692 8.99904 6.84751 8.95243 6.68527 8.95255C6.52304 8.95266 6.36369 8.9995 6.2232 9.08835C6.08272 9.1772 5.96606 9.30495 5.88492 9.45876C5.80378 9.61258 5.76102 9.78706 5.76092 9.96469V19.4846C5.76104 19.6621 5.71859 19.8364 5.6378 19.9902C5.55701 20.1441 5.44073 20.2719 5.3006 20.3611C5.16047 20.4502 5.00141 20.4974 4.83935 20.4981C4.67729 20.4987 4.51793 20.4528 4.3772 20.3648L1.44861 18.5313C1.30679 18.4426 1.18896 18.3144 1.10708 18.1597C1.02519 18.005 0.982186 17.8293 0.982423 17.6505L1.00844 1.01057C1.00885 0.833239 1.05179 0.659133 1.13295 0.505673C1.21412 0.352212 1.33066 0.224776 1.47093 0.136113C1.6112 0.0474496 1.77027 0.000667902 1.93224 0.000447464C2.0942 0.000227027 2.25338 0.0465755 2.39385 0.134857L12.4255 6.44303C12.5657 6.53117 12.7245 6.57756 12.8861 6.57756C13.0478 6.57756 13.2066 6.53117 13.3468 6.44303L23.3754 0.134572C23.5161 0.0460825 23.6756 -0.000327086 23.8379 1.73523e-06C24.0001 0.000330556 24.1595 0.0473862 24.2998 0.136445C24.4402 0.225504 24.5568 0.353432 24.6377 0.507388C24.7187 0.661344 24.7612 0.83591 24.7611 1.01356V17.6573C24.7612 17.8353 24.7184 18.0103 24.6371 18.1644C24.5557 18.3186 24.4387 18.4466 24.2978 18.5354L19.0457 21.8472C18.9046 21.9362 18.7875 22.0644 18.7062 22.2189C18.6249 22.3734 18.5822 22.5486 18.5826 22.7269C18.583 22.9052 18.6263 23.0802 18.7083 23.2343C18.7902 23.3883 18.9079 23.516 19.0493 23.6043L21.9465 25.4101C22.0865 25.4974 22.2448 25.5431 22.4059 25.5427C22.567 25.5423 22.7252 25.4959 22.8649 25.408L29.0486 21.52L29.0485 21.5202ZM29.6562 6.59C29.6563 6.76912 29.6998 6.94499 29.7822 7.09969C29.8647 7.25439 29.9831 7.38238 30.1255 7.47061C30.2679 7.55883 30.4291 7.60414 30.5927 7.6019C30.7562 7.59967 30.9163 7.54997 31.0567 7.45788L33.8316 5.63496C33.9686 5.54509 34.082 5.41792 34.1608 5.26584C34.2396 5.11375 34.281 4.94192 34.2812 4.76708V1.05216C34.2809 0.873127 34.2373 0.697378 34.1548 0.542817C34.0722 0.388256 33.9538 0.260408 33.8114 0.172301C33.6691 0.0841932 33.508 0.0389749 33.3445 0.0412535C33.181 0.043532 33.0209 0.093226 32.8807 0.185272L30.1058 2.0082C29.9688 2.09806 29.8554 2.22524 29.7766 2.37736C29.6978 2.52947 29.6563 2.70134 29.6562 2.87622V6.591V6.59Z" fill="#007FFF"/>
</svg>
