<svg width="37" height="34" viewBox="0 0 37 34" fill="none" xmlns="http://www.w3.org/2000/svg">
<path d="M31.1857 22.4399C31.342 22.3517 31.4719 22.2248 31.5625 22.0718C31.6531 21.9188 31.7011 21.7451 31.7016 21.5681L31.7201 15.7292C31.7207 15.5522 31.7686 15.3784 31.8592 15.2254C31.9498 15.0724 32.0798 14.9454 32.2361 14.8573L35.4603 13.0392C35.6166 12.9511 35.7937 12.9048 35.9739 12.9051C36.1541 12.9054 36.3311 12.9522 36.487 13.0408C36.643 13.1294 36.7725 13.2567 36.8625 13.41C36.9526 13.5632 37 13.737 37 13.9139V24.5294C37 24.7069 36.9523 24.8813 36.8617 25.0349C36.7711 25.1885 36.6408 25.3159 36.484 25.4043L24.3159 32.2654C24.1605 32.353 23.9844 32.3992 23.8052 32.3994C23.6259 32.3995 23.4497 32.3537 23.2941 32.2664L13.7449 26.9045C13.5876 26.8164 13.4568 26.6889 13.3658 26.5351C13.2748 26.3814 13.2269 26.2067 13.2268 26.0288V20.6761C13.2268 20.6701 13.234 20.6662 13.2402 20.669C13.2453 20.6721 13.2525 20.669 13.2525 20.6619V20.656C13.2525 20.652 13.2545 20.6479 13.2587 20.6459L21.1235 16.2104C21.1308 16.2063 21.1276 16.1953 21.1193 16.1953C21.1172 16.1953 21.1151 16.1944 21.1135 16.1929C21.112 16.1914 21.1111 16.1893 21.1111 16.1872L21.1266 10.9394C21.1273 10.762 21.0803 10.5874 20.9904 10.4335C20.9005 10.2795 20.7708 10.1516 20.6145 10.0625C20.4581 9.97351 20.2806 9.92653 20.0998 9.92637C19.919 9.9262 19.7414 9.97284 19.5849 10.0616L13.7397 13.3682C13.5837 13.4564 13.4069 13.5028 13.2269 13.5028C13.0468 13.5028 12.87 13.4564 12.714 13.3682L6.85035 10.0538C6.69414 9.96546 6.51701 9.91902 6.33674 9.91914C6.15647 9.91925 5.97941 9.96591 5.82331 10.0544C5.66722 10.143 5.53758 10.2702 5.44742 10.4235C5.35726 10.5767 5.30975 10.7505 5.30965 10.9275V20.4119C5.30978 20.5887 5.2626 20.7624 5.17283 20.9156C5.08306 21.0689 4.95386 21.1963 4.79815 21.2851C4.64245 21.3739 4.46571 21.421 4.28564 21.4216C4.10557 21.4223 3.92848 21.3764 3.77212 21.2888L0.518001 19.4621C0.360427 19.3738 0.229493 19.246 0.13851 19.0919C0.0475266 18.9378 -0.000262336 18.7627 1.08313e-06 18.5846L0.0289073 2.0068C0.0293684 1.83013 0.0770779 1.65667 0.167263 1.50379C0.257449 1.3509 0.386948 1.22394 0.542807 1.1356C0.698666 1.04727 0.87542 1.00067 1.05539 1.00045C1.23536 1.00023 1.41223 1.0464 1.56831 1.13435L12.715 7.41899C12.8708 7.5068 13.0472 7.55301 13.2269 7.55301C13.4065 7.55301 13.583 7.5068 13.7387 7.41899L24.8821 1.13407C25.0384 1.04591 25.2156 0.999674 25.3959 1C25.5762 1.00033 25.7532 1.04721 25.9092 1.13594C26.0652 1.22466 26.1947 1.35211 26.2847 1.50549C26.3746 1.65888 26.4219 1.83279 26.4218 2.00978V18.5914C26.4219 18.7688 26.3743 18.943 26.2839 19.0966C26.1936 19.2502 26.0635 19.3777 25.9069 19.4663L20.0711 22.7656C19.9143 22.8543 19.7842 22.9821 19.6938 23.136C19.6035 23.2899 19.5561 23.4645 19.5565 23.6421C19.5569 23.8197 19.6051 23.9941 19.6961 24.1476C19.7872 24.301 19.9179 24.4282 20.0751 24.5162L23.2942 26.3153C23.4498 26.4022 23.6258 26.4477 23.8048 26.4474C23.9838 26.447 24.1596 26.4007 24.3148 26.3132L31.1858 22.4397L31.1857 22.4399ZM31.8609 7.56541C31.861 7.74386 31.9094 7.91908 32.001 8.0732C32.0926 8.22732 32.2242 8.35483 32.3824 8.44273C32.5406 8.53063 32.7197 8.57576 32.9015 8.57354C33.0833 8.57131 33.2612 8.5218 33.4171 8.43005L36.5005 6.61393C36.6527 6.5244 36.7787 6.39771 36.8662 6.24619C36.9538 6.09467 36.9999 5.92348 37 5.74929V2.04823C36.9997 1.86987 36.9512 1.69478 36.8595 1.54079C36.7678 1.38681 36.6362 1.25944 36.478 1.17166C36.3199 1.08388 36.1408 1.03883 35.9592 1.0411C35.7775 1.04337 35.5997 1.09288 35.4438 1.18458L32.3605 3.0007C32.2083 3.09023 32.0822 3.21694 31.9947 3.36849C31.9071 3.52003 31.861 3.69126 31.8609 3.86549V7.5664V7.56541Z" fill="#007FFF"/>
</svg>
