<svg width="45" height="34" viewBox="0 0 45 34" fill="none" xmlns="http://www.w3.org/2000/svg">
<g clip-path="url(#clip0_947_678)">
<path d="M13.3866 22.1699L14.7542 26.5916C15.0615 27.5956 15.1896 28.2964 15.1383 28.6959C15.8862 26.6997 16.4088 24.5244 16.7062 22.1699H18.3506C17.6435 26.003 16.7109 28.7885 15.5533 30.5261C14.6514 31.8651 13.6633 32.5346 12.5873 32.5346C12.3005 32.5346 11.9468 32.4482 11.5271 32.2767V31.3528C11.7322 31.3827 11.9727 31.3987 12.2494 31.3987C12.7513 31.3987 13.1559 31.2601 13.4637 30.9834C13.8322 30.6463 14.0167 30.2674 14.0167 29.8475C14.0167 29.5607 13.8728 28.9723 13.5864 28.0821L11.6809 22.1699H13.3866ZM2.91999 19.4521L5.42487 27.0679H5.44034L7.96061 19.4521H10.0197C10.4706 23.229 10.7369 26.6847 10.8186 29.8171H9.08262C9.02153 26.889 8.85234 24.1356 8.57566 21.5564H8.56055L5.91697 29.8171H4.59492L1.96734 21.5564H1.95188C1.75693 24.0334 1.63424 26.7868 1.58309 29.8171H0C0.102305 26.1317 0.35833 22.677 0.768076 19.4521H2.91999Z" fill="#00758F"/>
<path d="M30.9812 19.2982C33.6757 19.2982 35.023 21.0136 35.023 24.4426C35.023 26.306 34.6178 27.7136 33.8082 28.6644C33.6623 28.8382 33.5011 28.9883 33.3312 29.1274L35.238 30.0669L35.2362 30.0668L34.5592 31.2318L32.076 29.788C31.6644 29.9095 31.2115 29.9702 30.718 29.9702C29.395 29.9702 28.4067 29.586 27.7534 28.8185C27.0362 27.9695 26.6778 26.6329 26.6778 24.811C26.6778 22.9581 27.0822 21.556 27.8921 20.6039C28.6296 19.7329 29.6595 19.2982 30.9812 19.2982ZM22.7301 19.3132C23.6931 19.3132 24.5687 19.57 25.3575 20.0818L24.9569 20.9713C24.2819 20.6855 23.6165 20.5419 22.9603 20.5419C22.4279 20.5419 22.0176 20.6696 21.7316 20.9266C21.444 21.1813 21.2662 21.509 21.2662 21.9086C21.2662 22.5225 21.7051 23.0549 22.5155 23.5047C22.781 23.6494 23.0456 23.7957 23.3093 23.9436L23.3697 23.9775L23.4 23.9945L23.4606 24.0284L23.4908 24.0454L23.5513 24.0794C24.1648 24.424 24.7421 24.753 24.7421 24.753C25.5524 25.3262 25.9563 25.9373 25.9563 26.9439C25.9563 27.823 25.6331 28.5445 24.9887 29.1092C24.3438 29.6713 23.4775 29.9531 22.3926 29.9531C21.3779 29.9531 20.3945 29.6287 19.4419 28.9853L19.8875 28.095C20.7073 28.5044 21.4491 28.7089 22.1152 28.7089C22.7399 28.7089 23.2289 28.5699 23.5827 28.2955C23.9357 28.019 24.1473 27.6333 24.1473 27.1444C24.1473 26.5289 23.7177 26.0028 22.9296 25.5615C22.6829 25.4257 22.4369 25.2886 22.1917 25.1501L22.1313 25.1161C22.0204 25.0536 21.9087 24.9904 21.7993 24.9285L21.74 24.8948C21.2078 24.5932 20.7477 24.3297 20.7477 24.3297C19.9598 23.7554 19.5648 23.1393 19.5648 22.124C19.5648 21.2844 19.8594 20.6057 20.4477 20.0894C21.0375 19.572 21.7983 19.3132 22.7301 19.3132ZM38.1896 19.452V28.5419H41.4625V29.8169H36.5297V19.452H38.1896ZM43.2811 28.5459V28.7613H42.9213V29.8158H42.6462V28.7613H42.2724V28.5459H43.2812H43.2811ZM43.9455 28.5459L44.291 29.4115L44.6084 28.5459H44.9984V29.8158H44.7391V28.8493L44.3779 29.8158H44.1909L43.8291 28.8493H43.8152V29.8158H43.5699V28.5459H43.9456H43.9455ZM30.8118 20.5728C29.2239 20.5728 28.4296 21.8787 28.4296 24.4886C28.4296 25.9836 28.6401 27.0677 29.0603 27.7434C29.4495 28.3688 30.059 28.6808 30.8889 28.6808C32.4768 28.6808 33.271 27.3648 33.271 24.734C33.271 23.2599 33.0605 22.1851 32.6409 21.5091C32.2513 20.8852 31.642 20.5728 30.8119 20.5728H30.8118Z" fill="#F29111"/>
<path d="M26.6499 2.64224C27.1766 1.35251 29.0184 2.32923 29.7331 2.77975C29.9083 2.89246 30.1092 3.1306 30.31 3.21862C30.6234 3.23088 30.9364 3.25532 31.2503 3.26837C31.839 3.40622 32.3904 3.51885 32.8543 3.78212C35.0101 5.04724 36.4134 6.33644 37.705 8.46591C37.981 8.91695 38.1189 9.40504 38.3443 9.89314C38.6572 10.6207 39.0087 11.3844 39.3719 12.0723C39.5345 12.3985 39.6603 12.7612 39.8861 13.0366C39.9742 13.1626 40.2246 13.1997 40.3743 13.2749C40.7881 13.4884 41.2894 13.6504 41.6786 13.9009C42.4054 14.3525 43.1081 14.8906 43.7468 15.4414C43.9849 15.6541 44.1472 15.9551 44.374 16.18V16.2935C44.1727 16.3551 43.972 16.4182 43.7712 16.4687C43.3325 16.581 42.944 16.5556 42.5184 16.6679C42.2554 16.744 41.9289 16.8442 41.6531 16.8697L41.6786 16.8953C41.8408 17.3573 42.7187 17.733 43.1202 18.0093C43.6078 18.36 44.0596 18.7853 44.4233 19.2738C44.5489 19.3984 44.6745 19.5118 44.7995 19.6361C44.8869 19.762 44.9115 19.9249 44.9999 20.0372V20.0752C44.902 20.0408 44.8316 19.9751 44.7649 19.9064L44.7251 19.865C44.6852 19.8239 44.6451 19.7834 44.5993 19.75C44.3226 19.5617 44.0479 19.3365 43.7712 19.1614C43.2955 18.8606 42.7438 18.6861 42.2554 18.3842C41.9793 18.2089 41.716 18.0093 41.4528 17.8088C41.2142 17.633 40.9514 17.2955 40.8014 17.045C40.7131 16.9066 40.701 16.744 40.6001 16.6439C40.6181 16.4767 40.7718 16.427 40.927 16.3862L40.9626 16.3768C41.0162 16.363 41.0686 16.3491 41.1143 16.3308C41.7659 16.0551 42.5427 15.9551 43.5459 15.9802C43.5081 15.7291 42.8813 15.4164 42.6812 15.2661C42.2795 14.9776 41.8542 14.6766 41.4281 14.414C41.2023 14.2765 40.8132 14.1761 40.5631 14.0638C40.2246 13.9259 39.4724 13.7882 39.2848 13.5256C38.9662 13.1117 38.7373 12.618 38.5151 12.1193L38.4547 11.9832C38.4345 11.9378 38.4143 11.8925 38.394 11.8472C38.1314 11.2466 37.8052 10.6205 37.5419 10.0056C37.4043 9.70562 37.3411 9.44235 37.1904 9.15465C36.2757 7.38917 34.9219 5.91106 33.2806 4.87155C32.7412 4.53331 32.1397 4.22029 31.4758 4.00756C31.0996 3.89431 30.648 3.95693 30.2471 3.87005H29.9833C29.7581 3.80682 29.5701 3.56895 29.3944 3.44353C29.0064 3.18096 28.6177 3.00466 28.1536 2.81732C27.991 2.74217 27.5267 2.56719 27.3646 2.70495C27.2643 2.73009 27.2134 2.76784 27.1887 2.8682C27.0888 3.01797 27.1766 3.24358 27.2388 3.3817C27.427 3.78194 27.69 4.01982 27.9287 4.35806C28.1411 4.65802 28.4048 4.99627 28.5554 5.32242C28.8802 6.02351 29.0315 6.80027 29.3325 7.50128C29.4441 7.7649 29.6207 8.06487 29.7832 8.30265C29.9209 8.49139 30.1713 8.62784 30.2471 8.86677C30.3981 9.11725 30.021 9.94376 29.9338 10.2062C29.6073 11.2333 29.6705 12.661 30.0465 13.5513L30.0666 13.5982L30.0866 13.6458C30.2239 13.9718 30.3709 14.3229 30.7359 14.4141C30.761 14.3892 30.7359 14.4023 30.7857 14.3892C30.874 13.7001 30.8989 13.0365 31.1373 12.4974C31.275 12.1603 31.55 11.922 31.7385 11.6468C31.8642 11.7218 31.8642 11.9478 31.9391 12.0974C32.1022 12.4854 32.2774 12.9108 32.4785 13.2999C32.8912 14.1013 33.3556 14.8782 33.8818 15.5792C34.058 15.8296 34.3081 16.1052 34.5336 16.3307C34.6341 16.4181 34.7466 16.4685 34.8221 16.5809H34.8467V16.6187C34.4707 16.4806 34.2323 16.093 33.9324 15.8667C33.3678 15.4413 32.6917 14.8024 32.3025 14.1895C32.1397 13.8376 31.9638 13.5003 31.7884 13.1501V13.1248C31.7134 13.2248 31.7385 13.3242 31.701 13.4755C31.5382 14.1013 31.6635 14.8151 31.0996 15.0402C30.4602 15.3039 29.9833 14.6148 29.7832 14.3017C29.1437 13.2625 28.9686 11.5093 29.4195 10.094C29.5197 9.78077 29.5333 9.40504 29.7082 9.15491C29.6705 8.92877 29.4956 8.86694 29.3944 8.72839C29.219 8.49157 29.0688 8.21568 28.9314 7.95268C28.6675 7.43892 28.4798 6.82506 28.2795 6.27408C28.1914 6.04909 28.1662 5.82321 28.0784 5.61021C27.9286 5.28511 27.6526 4.95896 27.4396 4.67134C27.1512 4.25795 26.3114 3.45675 26.6499 2.64224ZM30.7607 5.09585C30.7942 5.1293 30.8347 5.15855 30.8765 5.18737L30.9269 5.22188C30.9942 5.26829 31.0593 5.31717 31.0992 5.38373C31.1625 5.47183 31.1743 5.5588 31.25 5.64709C31.25 5.9481 31.1625 6.14823 30.9857 6.27294C30.9857 6.27294 30.9737 6.28608 30.9613 6.29834C30.8611 6.09769 30.7733 5.8981 30.6724 5.69762C30.5481 5.52263 30.3724 5.38381 30.2712 5.18387H30.2468V5.15873C30.3981 5.12151 30.5481 5.09585 30.7607 5.09585Z" fill="#00758F"/>
</g>
<defs>
<clipPath id="clip0_947_678">
<rect width="45" height="30.566" fill="white" transform="translate(0 2)"/>
</clipPath>
</defs>
</svg>
