<svg width="43" height="29" viewBox="0 0 43 29" fill="none" xmlns="http://www.w3.org/2000/svg">
<g clip-path="url(#clip0_674_322)">
<path d="M13.0389 18.7777L14.3121 22.8943C14.5982 23.829 14.7175 24.4814 14.6697 24.8533C15.366 22.9949 15.8525 20.9697 16.1294 18.7777H17.6603C17.002 22.3463 16.1338 24.9395 15.0561 26.5572C14.2164 27.8038 13.2965 28.4271 12.2948 28.4271C12.0277 28.4271 11.6985 28.3467 11.3077 28.1871V27.3268C11.4986 27.3547 11.7226 27.3697 11.9802 27.3697C12.4475 27.3697 12.8241 27.2406 13.1107 26.983C13.4538 26.6692 13.6255 26.3164 13.6255 25.9255C13.6255 25.6585 13.4916 25.1107 13.2249 24.2819L11.4509 18.7777H13.0389ZM3.29464 16.2476L5.62665 23.3377H5.64105L7.98738 16.2476H9.90437C10.3241 19.7638 10.5721 22.981 10.6482 25.8972H9.03195C8.97508 23.1711 8.81757 20.6078 8.55999 18.2066H8.54591L6.08478 25.8972H4.85398L2.40774 18.2066H2.39334C2.21185 20.5126 2.09762 23.076 2.05 25.8972H0.576172C0.671416 22.4661 0.909772 19.2498 1.29124 16.2476H3.29464Z" fill="#00758F"/>
<path d="M29.4192 16.1043C31.9277 16.1043 33.182 17.7013 33.182 20.8937C33.182 22.6285 32.8048 23.9389 32.0511 24.8242C31.9153 24.9859 31.7651 25.1257 31.6071 25.2552L33.3822 26.1298L33.3805 26.1297L32.7502 27.2144L30.4384 25.8702C30.0552 25.9833 29.6336 26.0398 29.1742 26.0398C27.9424 26.0398 27.0224 25.6821 26.4141 24.9676C25.7464 24.1772 25.4127 22.9328 25.4127 21.2367C25.4127 19.5117 25.7893 18.2063 26.5432 17.3199C27.2299 16.5091 28.1887 16.1043 29.4192 16.1043ZM21.7375 16.1184C22.6341 16.1184 23.4493 16.3574 24.1836 16.8338L23.8106 17.662C23.1823 17.3959 22.5628 17.2622 21.9519 17.2622C21.4562 17.2622 21.0742 17.3811 20.808 17.6204C20.5402 17.8575 20.3746 18.1626 20.3746 18.5345C20.3746 19.1061 20.7833 19.6018 21.5378 20.0206C21.7849 20.1552 22.0313 20.2914 22.2767 20.4291L22.333 20.4607L22.3613 20.4765L22.4176 20.5081L22.4458 20.5239L22.5021 20.5555C23.0732 20.8764 23.6106 21.1826 23.6106 21.1826C24.3651 21.7163 24.7411 22.2853 24.7411 23.2224C24.7411 24.0408 24.4402 24.7126 23.8402 25.2382C23.2399 25.7615 22.4333 26.0239 21.4233 26.0239C20.4786 26.0239 19.5631 25.7219 18.6763 25.1229L19.0911 24.294C19.8543 24.6752 20.5449 24.8656 21.1651 24.8656C21.7467 24.8656 22.2019 24.7362 22.5313 24.4807C22.86 24.2232 23.0569 23.8642 23.0569 23.409C23.0569 22.836 22.657 22.3463 21.9232 21.9354C21.6936 21.809 21.4646 21.6813 21.2363 21.5524L21.1801 21.5207C21.0768 21.4626 20.9728 21.4037 20.871 21.346L20.8157 21.3147C20.3203 21.0339 19.8919 20.7886 19.8919 20.7886C19.1585 20.2539 18.7907 19.6803 18.7907 18.7351C18.7907 17.9534 19.0649 17.3216 19.6127 16.8409C20.1617 16.3592 20.8701 16.1184 21.7375 16.1184ZM36.1301 16.2475V24.7101H39.1771V25.8971H34.5847V16.2475H36.1301ZM40.8702 24.7138V24.9144H40.5352V25.8961H40.2791V24.9144H39.9311V24.7138H40.8703H40.8702ZM41.4888 24.7138L41.8104 25.5197L42.1059 24.7138H42.469V25.8961H42.2276V24.9963L41.8913 25.8961H41.7173L41.3804 24.9963H41.3674V25.8961H41.1391V24.7138H41.4889H41.4888ZM29.2615 17.291C27.7832 17.291 27.0437 18.5067 27.0437 20.9366C27.0437 22.3284 27.2396 23.3377 27.6309 23.9667C27.9932 24.5489 28.5606 24.8394 29.3333 24.8394C30.8116 24.8394 31.551 23.6142 31.551 21.165C31.551 19.7927 31.355 18.792 30.9643 18.1627C30.6016 17.5818 30.0344 17.291 29.2615 17.291H29.2615Z" fill="#F29111"/>
<path d="M25.3871 0.597919C25.8775 -0.6028 27.5921 0.306504 28.2575 0.725932C28.4206 0.830871 28.6077 1.05257 28.7946 1.13452C29.0864 1.14593 29.3778 1.16868 29.67 1.18083C30.2181 1.30917 30.7314 1.41403 31.1633 1.65913C33.1703 2.83693 34.4768 4.03716 35.6792 6.01966C35.9362 6.43958 36.0645 6.89398 36.2744 7.34839C36.5657 8.02572 36.893 8.73673 37.2311 9.3772C37.3825 9.68085 37.4996 10.0185 37.7098 10.2749C37.7919 10.3922 38.025 10.4268 38.1643 10.4968C38.5496 10.6955 39.0163 10.8463 39.3786 11.0795C40.0552 11.4999 40.7094 12.0009 41.3041 12.5138C41.5258 12.7118 41.6768 12.992 41.888 13.2014V13.3071C41.7006 13.3644 41.5137 13.4231 41.3268 13.4701C40.9184 13.5747 40.5566 13.551 40.1604 13.6556C39.9156 13.7264 39.6116 13.8198 39.3549 13.8435L39.3786 13.8673C39.5297 14.2974 40.3469 14.6472 40.7207 14.9045C41.1747 15.2309 41.5953 15.6269 41.9339 16.0816C42.0508 16.1976 42.1678 16.3032 42.2841 16.4189C42.3655 16.5362 42.3884 16.6878 42.4707 16.7924V16.8278C42.3795 16.7957 42.314 16.7346 42.2519 16.6706L42.2148 16.6321C42.1778 16.5937 42.1404 16.5561 42.0977 16.525C41.8401 16.3497 41.5844 16.14 41.3268 15.977C40.8839 15.697 40.3703 15.5345 39.9156 15.2534C39.6585 15.0903 39.4135 14.9045 39.1684 14.7177C38.9462 14.5541 38.7016 14.2398 38.562 14.0066C38.4798 13.8778 38.4685 13.7264 38.3745 13.6332C38.3913 13.4776 38.5344 13.4313 38.6788 13.3933L38.7121 13.3846C38.7619 13.3717 38.8107 13.3588 38.8532 13.3418C39.4599 13.0851 40.1831 12.992 41.1171 13.0153C41.0819 12.7816 40.4983 12.4905 40.312 12.3505C39.938 12.082 39.5421 11.8017 39.1454 11.5573C38.9352 11.4293 38.573 11.3358 38.3401 11.2312C38.025 11.1029 37.3246 10.9746 37.15 10.7302C36.8534 10.3448 36.6403 9.88518 36.4335 9.42091L36.3772 9.2942C36.3584 9.25197 36.3396 9.20976 36.3207 9.16757C36.0762 8.60847 35.7725 8.02556 35.5274 7.45309C35.3993 7.17382 35.3405 6.92872 35.2001 6.66087C34.3486 5.01724 33.0882 3.64114 31.5602 2.67337C31.058 2.35847 30.4981 2.06706 29.88 1.869C29.5297 1.76358 29.1093 1.82188 28.7361 1.74099H28.4904C28.2808 1.68212 28.1058 1.46066 27.9422 1.3439C27.5809 1.09945 27.2191 0.93532 26.7871 0.760912C26.6357 0.690953 26.2034 0.528041 26.0525 0.656299C25.9591 0.679701 25.9117 0.714843 25.8887 0.808285C25.7958 0.947714 25.8775 1.15775 25.9354 1.28634C26.1106 1.65896 26.3554 1.88042 26.5777 2.19532C26.7754 2.47458 27.0209 2.78948 27.1611 3.09312C27.4635 3.74583 27.6043 4.46898 27.8846 5.12161C27.9885 5.36704 28.1529 5.6463 28.3042 5.86767C28.4324 6.04339 28.6655 6.17042 28.7361 6.39286C28.8766 6.62605 28.5256 7.39552 28.4444 7.63989C28.1404 8.59608 28.1993 9.92522 28.5493 10.754L28.568 10.7977L28.5866 10.842C28.7145 11.1456 28.8513 11.4725 29.1911 11.5573C29.2145 11.5342 29.1911 11.5463 29.2375 11.5342C29.3197 10.8927 29.3429 10.2748 29.5648 9.7729C29.693 9.45907 29.949 9.2372 30.1245 8.98101C30.2416 9.05081 30.2416 9.26126 30.3113 9.40052C30.4631 9.76173 30.6262 10.1578 30.8134 10.52C31.1977 11.2661 31.63 11.9894 32.1199 12.642C32.284 12.8752 32.5168 13.1318 32.7267 13.3417C32.8203 13.423 32.925 13.47 32.9953 13.5746H33.0182V13.6098C32.6682 13.4812 32.4462 13.1203 32.1671 12.9096C31.6414 12.5136 31.0119 11.9189 30.6496 11.3482C30.4981 11.0206 30.3343 10.7066 30.1709 10.3806V10.357C30.1011 10.4502 30.1245 10.5426 30.0896 10.6835C29.9381 11.2661 30.0547 11.9307 29.5297 12.1403C28.9345 12.3857 28.4905 11.7442 28.3042 11.4527C27.7088 10.4852 27.5458 8.853 27.9656 7.53544C28.0589 7.24378 28.0716 6.89398 28.2344 6.66111C28.1992 6.45058 28.0364 6.39302 27.9422 6.26403C27.7789 6.04355 27.639 5.78671 27.5111 5.54185C27.2655 5.06355 27.0907 4.49206 26.9042 3.97911C26.8223 3.76964 26.7988 3.55935 26.717 3.36105C26.5776 3.05839 26.3206 2.75474 26.1223 2.48697C25.8539 2.10212 25.0719 1.35622 25.3871 0.597919ZM29.2142 2.88219C29.2454 2.91333 29.2831 2.94057 29.322 2.96739L29.369 2.99952C29.4316 3.04273 29.4922 3.08823 29.5294 3.1502C29.5883 3.23223 29.5992 3.31319 29.6698 3.39538C29.6698 3.67563 29.5883 3.86194 29.4237 3.97805C29.4237 3.97805 29.4125 3.99028 29.401 4.00169C29.3077 3.81489 29.2259 3.62907 29.132 3.44243C29.0163 3.27952 28.8527 3.15028 28.7585 2.96413H28.7358V2.94073C28.8766 2.90608 29.0163 2.88219 29.2142 2.88219Z" fill="#00758F"/>
</g>
<defs>
<clipPath id="clip0_674_322">
<rect width="41.8943" height="28.4565" fill="white" transform="translate(0.576172)"/>
</clipPath>
</defs>
</svg>
