<svg width="55" height="29" viewBox="0 0 55 29" fill="none" xmlns="http://www.w3.org/2000/svg">
<g clip-path="url(#clip0_674_337)">
<path d="M27.7846 28.3722C42.8114 28.3722 54.993 22.0209 54.993 14.1861C54.993 6.35134 42.8114 0 27.7846 0C12.7578 0 0.576172 6.35134 0.576172 14.1861C0.576172 22.0209 12.7578 28.3722 27.7846 28.3722Z" fill="url(#paint0_radial_674_337)"/>
<path d="M27.7848 27.3183C42.2246 27.3183 53.9304 21.4388 53.9304 14.1861C53.9304 6.93342 42.2246 1.05396 27.7848 1.05396C13.3449 1.05396 1.63916 6.93342 1.63916 14.1861C1.63916 21.4388 13.3449 27.3183 27.7848 27.3183Z" fill="#6181B6"/>
<path d="M33.0776 18.4441L34.3743 11.8253C34.6719 10.3287 34.4168 9.21155 33.6516 8.51595C32.9076 7.84143 31.6322 7.50416 29.7616 7.50416H27.5084L28.1461 4.21585C28.1674 4.08938 28.1461 3.96291 28.0611 3.85751C27.9761 3.75212 27.8698 3.70996 27.7422 3.70996H24.6388C24.4262 3.70996 24.2562 3.85751 24.2136 4.04722L22.832 11.0665C22.7044 10.2655 22.4068 9.59097 21.8967 9.04292C20.9826 8.01006 19.5585 7.48308 17.6241 7.48308H11.651C11.4384 7.48308 11.2684 7.63064 11.2259 7.82035L8.44126 22.0697C8.42 22.1962 8.44126 22.3226 8.52629 22.428C8.61131 22.5334 8.7176 22.5756 8.84514 22.5756H11.9699C12.1824 22.5756 12.3525 22.428 12.395 22.2383L13.0752 18.8025H15.3922C16.6038 18.8025 17.6454 18.676 18.4319 18.423C19.2609 18.149 20.0048 17.7064 20.6638 17.0951C21.1952 16.6102 21.6416 16.0622 21.9817 15.472L21.429 18.3176C21.4078 18.4441 21.429 18.5706 21.5141 18.676C21.5991 18.7814 21.7054 18.8235 21.8329 18.8235H24.9364C25.1489 18.8235 25.319 18.676 25.3615 18.4863L26.892 10.6871H29.0176C29.9317 10.6871 30.1867 10.8557 30.2718 10.94C30.3355 11.0033 30.4631 11.2562 30.3143 12.0361L29.0814 18.3387C29.0601 18.4652 29.0814 18.5917 29.1664 18.6971C29.2515 18.8025 29.3577 18.8446 29.4853 18.8446H32.6738C32.8651 18.7814 33.0351 18.6338 33.0776 18.4441ZM18.7082 12.9636C18.5169 13.9543 18.1555 14.671 17.6241 15.0715C17.0927 15.472 16.2212 15.6828 15.0733 15.6828H13.6916L14.6907 10.5817H16.4762C17.7942 10.5817 18.3256 10.8557 18.5381 11.0876C18.8145 11.4248 18.8782 12.0783 18.7082 12.9636ZM46.3418 9.04292C45.4277 8.01006 44.0035 7.48308 42.0692 7.48308H36.0536C35.841 7.48308 35.6709 7.63064 35.6284 7.82035L32.8438 22.0486C32.8226 22.1751 32.8438 22.3016 32.9288 22.4069C33.0139 22.5123 33.1202 22.5545 33.2477 22.5545H36.3724C36.585 22.5545 36.755 22.4069 36.7975 22.2172L37.4778 18.7814H39.7947C41.0063 18.7814 42.0479 18.6549 42.8344 18.402C43.6634 18.1279 44.4074 17.6853 45.0664 17.074C45.619 16.5681 46.0867 15.999 46.4268 15.3877C46.7669 14.7764 47.022 14.1019 47.1708 13.3641C47.5321 11.5302 47.2558 10.0969 46.3418 9.04292ZM43.0895 12.9636C42.8982 13.9543 42.5368 14.671 42.0054 15.0715C41.474 15.472 40.6025 15.6828 39.4546 15.6828H38.0729L39.072 10.5817H40.8576C42.1755 10.5817 42.7069 10.8557 42.9194 11.0876C43.217 11.4248 43.2808 12.0783 43.0895 12.9636Z" fill="white"/>
<path d="M16.4761 10.1599C17.6664 10.1599 18.4529 10.3707 18.8568 10.8134C19.2607 11.256 19.3457 11.9938 19.1331 13.0477C18.9206 14.1438 18.4954 14.9448 17.879 15.4086C17.2626 15.8723 16.3273 16.1042 15.0731 16.1042H13.1813L14.3504 10.1599H16.4761ZM8.86621 22.1327H11.9909L12.7349 18.3596H15.4132C16.6036 18.3596 17.5602 18.2331 18.3254 17.9802C19.0906 17.7272 19.7708 17.3267 20.4085 16.7365C20.94 16.2517 21.3651 15.7247 21.6839 15.1556C22.0028 14.5865 22.2366 13.9541 22.3641 13.2585C22.7042 11.5722 22.4492 10.2653 21.6202 9.31676C20.7912 8.36821 19.4732 7.90447 17.6664 7.90447H11.6508L8.86621 22.1327ZM24.6599 4.13135H27.7633L27.0193 7.90447H29.7827C31.5257 7.90447 32.7161 8.19958 33.3751 8.81086C34.034 9.42215 34.2253 10.3918 33.9702 11.7408L32.6736 18.3596H29.5276L30.7605 12.057C30.9093 11.3403 30.8455 10.8555 30.6117 10.6026C30.3779 10.3496 29.8465 10.2021 29.06 10.2021H26.5729L24.9787 18.3596H21.8752L24.6599 4.13135ZM40.8574 10.1599C42.0477 10.1599 42.8342 10.3707 43.2381 10.8134C43.642 11.256 43.727 11.9938 43.5144 13.0477C43.3019 14.1438 42.8767 14.9448 42.2603 15.4086C41.6439 15.8723 40.7086 16.1042 39.4544 16.1042H37.5626L38.7317 10.1599H40.8574ZM33.2475 22.1327H36.3722L37.1162 18.3596H39.7945C40.9849 18.3596 41.9415 18.2331 42.7067 17.9802C43.4719 17.7272 44.1521 17.3267 44.7898 16.7365C45.3213 16.2517 45.7464 15.7247 46.0652 15.1556C46.3841 14.5865 46.6179 13.9541 46.7454 13.2585C47.0856 11.5722 46.8305 10.2653 46.0015 9.31676C45.1725 8.36821 43.8546 7.90447 42.0477 7.90447H36.0321L33.2475 22.1327Z" fill="#000004"/>
</g>
<defs>
<radialGradient id="paint0_radial_674_337" cx="0" cy="0" r="1" gradientUnits="userSpaceOnUse" gradientTransform="translate(16.9122 4.98885) scale(35.7313 35.4327)">
<stop stop-color="white"/>
<stop offset="0.5" stop-color="#4C6B97"/>
<stop offset="1" stop-color="#231F20"/>
</radialGradient>
<clipPath id="clip0_674_337">
<rect width="54.4169" height="28.4565" fill="white" transform="translate(0.576172)"/>
</clipPath>
</defs>
</svg>
