<svg width="55" height="34" viewBox="0 0 55 34" fill="none" xmlns="http://www.w3.org/2000/svg">
<g clip-path="url(#clip0_947_671)">
<path d="M27.5 31.6763C42.6878 31.6763 55 25.2569 55 17.3381C55 9.4194 42.6878 3 27.5 3C12.3122 3 0 9.4194 0 17.3381C0 25.2569 12.3122 31.6763 27.5 31.6763Z" fill="url(#paint0_radial_947_671)"/>
<path d="M27.5 30.611C42.0946 30.611 53.9258 24.6685 53.9258 17.3381C53.9258 10.0077 42.0946 4.06519 27.5 4.06519C12.9054 4.06519 1.07422 10.0077 1.07422 17.3381C1.07422 24.6685 12.9054 30.611 27.5 30.611Z" fill="#6181B6"/>
<path d="M32.8495 21.6418L34.1601 14.9521C34.4609 13.4395 34.2031 12.3103 33.4296 11.6072C32.6777 10.9255 31.3886 10.5846 29.498 10.5846H27.2206L27.8652 7.26107C27.8867 7.13324 27.8652 7.00541 27.7792 6.89889C27.6933 6.79237 27.5859 6.74976 27.457 6.74976H24.3202C24.1054 6.74976 23.9335 6.89889 23.8906 7.09063L22.4941 14.1851C22.3652 13.3755 22.0644 12.6938 21.5488 12.1399C20.6249 11.0959 19.1855 10.5633 17.2304 10.5633H11.1933C10.9785 10.5633 10.8066 10.7124 10.7636 10.9042L7.94916 25.3062C7.92767 25.4341 7.94916 25.5619 8.03509 25.6684C8.12103 25.7749 8.22845 25.8175 8.35736 25.8175H11.5156C11.7304 25.8175 11.9023 25.6684 11.9452 25.4767L12.6327 22.004H14.9745C16.1992 22.004 17.2519 21.8762 18.0468 21.6205C18.8847 21.3435 19.6367 20.8961 20.3027 20.2783C20.8398 19.7883 21.291 19.2344 21.6347 18.6378L21.0761 21.514C21.0546 21.6418 21.0761 21.7696 21.162 21.8762C21.248 21.9827 21.3554 22.0253 21.4843 22.0253H24.621C24.8359 22.0253 25.0077 21.8762 25.0507 21.6844L26.5976 13.8016H28.746C29.6699 13.8016 29.9277 13.9721 30.0136 14.0573C30.0781 14.1212 30.207 14.3769 30.0566 15.1651L28.8105 21.5353C28.789 21.6631 28.8105 21.7909 28.8964 21.8975C28.9824 22.004 29.0898 22.0466 29.2187 22.0466H32.4413C32.6347 21.9827 32.8066 21.8335 32.8495 21.6418ZM18.3261 16.1026C18.1327 17.1039 17.7675 17.8282 17.2304 18.233C16.6933 18.6378 15.8124 18.8509 14.6523 18.8509H13.2558L14.2656 13.6951H16.0702C17.4023 13.6951 17.9394 13.9721 18.1542 14.2064C18.4335 14.5473 18.498 15.2078 18.3261 16.1026ZM46.2558 12.1399C45.332 11.0959 43.8925 10.5633 41.9374 10.5633H35.8574C35.6425 10.5633 35.4706 10.7124 35.4277 10.9042L32.6132 25.2849C32.5917 25.4127 32.6132 25.5406 32.6992 25.6471C32.7851 25.7536 32.8925 25.7962 33.0214 25.7962H36.1796C36.3945 25.7962 36.5663 25.6471 36.6093 25.4554L37.2968 21.9827H39.6386C40.8632 21.9827 41.916 21.8549 42.7109 21.5992C43.5488 21.3222 44.3007 20.8748 44.9667 20.257C45.5253 19.7457 45.998 19.1704 46.3417 18.5526C46.6855 17.9348 46.9433 17.253 47.0937 16.5073C47.4589 14.6538 47.1796 13.2051 46.2558 12.1399ZM42.9687 16.1026C42.7753 17.1039 42.4101 17.8282 41.873 18.233C41.3359 18.6378 40.455 18.8509 39.2949 18.8509H37.8984L38.9081 13.6951H40.7128C42.0449 13.6951 42.582 13.9721 42.7968 14.2064C43.0976 14.5473 43.162 15.2078 42.9687 16.1026Z" fill="white"/>
<path d="M16.0703 13.269C17.2734 13.269 18.0684 13.482 18.4766 13.9294C18.8848 14.3768 18.9707 15.1225 18.7559 16.1877C18.541 17.2956 18.1113 18.1051 17.4883 18.5738C16.8652 19.0425 15.9199 19.2769 14.6523 19.2769H12.7402L13.9219 13.269H16.0703ZM8.37891 25.3701H11.5371L12.2891 21.5565H14.9961C16.1992 21.5565 17.166 21.4287 17.9395 21.173C18.7129 20.9174 19.4004 20.5126 20.0449 19.916C20.582 19.426 21.0117 18.8934 21.334 18.3182C21.6563 17.743 21.8926 17.1038 22.0215 16.4008C22.3652 14.6964 22.1074 13.3755 21.2695 12.4168C20.4316 11.458 19.0996 10.9893 17.2734 10.9893H11.1934L8.37891 25.3701ZM24.3418 7.17578H27.4785L26.7266 10.9893H29.5195C31.2813 10.9893 32.4844 11.2876 33.1504 11.9054C33.8164 12.5233 34.0098 13.5033 33.752 14.8668L32.4414 21.5565H29.2617L30.5078 15.1864C30.6582 14.462 30.5938 13.972 30.3574 13.7164C30.1211 13.4607 29.584 13.3116 28.7891 13.3116H26.2754L24.6641 21.5565H21.5273L24.3418 7.17578ZM40.7129 13.269C41.916 13.269 42.7109 13.482 43.1191 13.9294C43.5273 14.3768 43.6133 15.1225 43.3984 16.1877C43.1836 17.2956 42.7539 18.1051 42.1309 18.5738C41.5078 19.0425 40.5625 19.2769 39.2949 19.2769H37.3828L38.5645 13.269H40.7129ZM33.0215 25.3701H36.1797L36.9316 21.5565H39.6387C40.8418 21.5565 41.8086 21.4287 42.582 21.173C43.3555 20.9174 44.043 20.5126 44.6875 19.916C45.2246 19.426 45.6543 18.8934 45.9766 18.3182C46.2988 17.743 46.5352 17.1038 46.6641 16.4008C47.0078 14.6964 46.75 13.3755 45.9121 12.4168C45.0742 11.458 43.7422 10.9893 41.916 10.9893H35.8359L33.0215 25.3701Z" fill="#000004"/>
</g>
<defs>
<radialGradient id="paint0_radial_947_671" cx="0" cy="0" r="1" gradientUnits="userSpaceOnUse" gradientTransform="translate(16.5111 8.04231) scale(36.1142 35.8124)">
<stop stop-color="white"/>
<stop offset="0.5" stop-color="#4C6B97"/>
<stop offset="1" stop-color="#231F20"/>
</radialGradient>
<clipPath id="clip0_947_671">
<rect width="55" height="28.7615" fill="white" transform="translate(0 3)"/>
</clipPath>
</defs>
</svg>
