<svg width="33" height="29" viewBox="0 0 33 29" fill="none" xmlns="http://www.w3.org/2000/svg">
<g clip-path="url(#clip0_674_316)">
<path d="M26.7018 9.2139C26.3615 9.09724 26.0183 8.98916 25.6726 8.88977C25.7307 8.65263 25.7842 8.41837 25.8316 8.18822C26.6107 4.40887 26.1014 1.36414 24.3617 0.361676C22.6937 -0.599356 19.9658 0.402738 17.2109 2.7987C16.9393 3.03526 16.6738 3.27863 16.4146 3.52859C16.2411 3.36237 16.0645 3.19939 15.8849 3.03971C12.9976 0.477873 10.1035 -0.601852 8.36565 0.403487C6.69915 1.36751 6.20568 4.22977 6.9071 7.81154C6.97689 8.16628 7.05568 8.51919 7.14341 8.86993C6.73375 8.98625 6.33845 9.11006 5.96013 9.24186C2.57493 10.4213 0.413086 12.2696 0.413086 14.1868C0.413086 16.1669 2.73392 18.153 6.25976 19.3573C6.54561 19.4545 6.83384 19.5446 7.12417 19.6275C7.02988 20.0052 6.94617 20.3856 6.87313 20.768C6.20443 24.2876 6.72663 27.0822 8.38863 28.0401C10.1052 29.0294 12.9863 28.0127 15.7916 25.562C16.0191 25.3628 16.2416 25.1579 16.4588 24.9476C16.7396 25.2183 17.0278 25.481 17.3231 25.7357C20.0406 28.0723 22.7244 29.0159 24.3848 28.0554C26.0998 27.0633 26.6572 24.0611 25.9335 20.4085C25.8765 20.1224 25.8126 19.8377 25.7418 19.5546C25.9441 19.4947 26.1427 19.433 26.3363 19.3689C30.0018 18.1554 32.3867 16.1934 32.3867 14.1868C32.3867 12.2626 30.155 10.4018 26.7018 9.2139ZM25.9068 18.0734C25.7319 18.1311 25.5526 18.1869 25.3697 18.2412C24.9651 16.9611 24.419 15.5999 23.7507 14.1934C24.3884 12.8205 24.9135 11.4767 25.3068 10.2049C25.6339 10.2995 25.9513 10.3992 26.2573 10.5044C29.2161 11.5224 31.0208 13.0272 31.0208 14.1868C31.0208 15.4219 29.0717 17.0253 25.9068 18.0734ZM24.5936 20.6736C24.9136 22.2887 24.9592 23.7489 24.7473 24.8906C24.5569 25.9164 24.174 26.6002 23.7004 26.8742C22.6928 27.457 20.538 26.6994 18.214 24.701C17.9393 24.4643 17.6712 24.22 17.4101 23.9684C18.3111 22.9837 19.2115 21.8391 20.0902 20.5678C21.636 20.4308 23.0962 20.2066 24.4205 19.9007C24.4843 20.1569 24.542 20.4147 24.5936 20.6736ZM11.3136 26.7734C10.3292 27.1208 9.54505 27.1308 9.07107 26.8577C8.06252 26.2765 7.64325 24.0325 8.21515 21.0226C8.28313 20.6669 8.36097 20.3132 8.44858 19.9619C9.75825 20.2514 11.2079 20.4596 12.7573 20.5851C13.642 21.8291 14.5684 22.9725 15.502 23.9737C15.3036 24.1656 15.1005 24.3525 14.8929 24.5344C13.6523 25.618 12.4092 26.3868 11.3136 26.7734ZM6.70165 18.0658C5.14256 17.5332 3.855 16.8411 2.97247 16.0859C2.17938 15.4073 1.77908 14.7335 1.77908 14.1868C1.77908 13.0233 3.51478 11.5393 6.40976 10.5308C6.7611 10.4084 7.1288 10.293 7.51036 10.1847C7.91053 11.4852 8.43534 12.845 9.0687 14.22C8.4271 15.6154 7.89479 16.9969 7.49075 18.3127C7.22573 18.2369 6.96262 18.1545 6.70165 18.0658ZM8.24762 7.54932C7.64674 4.48063 8.04579 2.16579 9.05009 1.58481C10.1197 0.966002 12.485 1.84828 14.9781 4.0604C15.1406 4.20498 15.3006 4.35248 15.4578 4.50285C14.5288 5.4997 13.6109 6.63459 12.734 7.8712C11.2303 8.01049 9.79085 8.23415 8.46744 8.53381C8.3859 8.20759 8.31261 7.87923 8.24762 7.54932ZM22.0396 10.9526C21.727 10.4131 21.4028 9.88029 21.0673 9.35468C22.0875 9.48361 23.0649 9.65473 23.9828 9.86391C23.7072 10.7466 23.3638 11.6693 22.9595 12.6153C22.664 12.055 22.3573 11.5007 22.0396 10.9526ZM16.4153 5.47836C17.0452 6.16044 17.6762 6.9219 18.2968 7.74814C17.0379 7.68872 15.7768 7.68847 14.5178 7.74739C15.1391 6.92877 15.7754 6.1683 16.4153 5.47836ZM10.7548 10.962C10.4411 11.5056 10.1401 12.0565 9.85217 12.6142C9.4545 11.6715 9.11416 10.7446 8.83626 9.84943C9.74851 9.64549 10.7213 9.47874 11.735 9.35219C11.3957 9.881 11.0689 10.4178 10.7548 10.962ZM11.7641 19.1185C10.7168 19.0017 9.7294 18.8436 8.8174 18.6451C9.09967 17.734 9.44751 16.7873 9.8538 15.8244C10.1429 16.3825 10.4451 16.9338 10.7602 17.4776C11.0842 18.0368 11.4196 18.5845 11.7641 19.1185ZM16.453 22.9914C15.8055 22.2934 15.1598 21.5212 14.5292 20.6907C15.1414 20.7147 15.7655 20.7269 16.3999 20.7269C17.0516 20.7269 17.6958 20.7123 18.3299 20.6841C17.7073 21.5296 17.0787 22.3029 16.453 22.9914ZM22.9723 15.7752C23.3997 16.7488 23.7599 17.6904 24.046 18.586C23.119 18.7974 22.1181 18.9676 21.0634 19.0941C21.4014 18.5587 21.7286 18.0167 22.045 17.4683C22.3666 16.9109 22.6758 16.3464 22.9723 15.7752ZM20.8618 16.7863C20.3775 17.6271 19.866 18.4519 19.328 19.2594C18.3535 19.3284 17.3768 19.3627 16.3999 19.3621C15.4048 19.3621 14.437 19.3312 13.505 19.2708C12.953 18.4651 12.4317 17.6389 11.9422 16.7938C11.455 15.9532 11 15.0945 10.5781 14.2194C10.999 13.3441 11.4527 12.4849 11.9382 11.6437L11.9381 11.6438C12.4234 10.8024 12.9406 9.97966 13.4884 9.17745C14.4393 9.10557 15.4143 9.06812 16.3998 9.06812C17.3897 9.06812 18.3661 9.10594 19.3167 9.17833C19.8591 9.97934 20.3729 10.7992 20.8573 11.6364C21.3445 12.4758 21.8042 13.3308 22.2357 14.2C21.8086 15.0782 21.3504 15.9408 20.8618 16.7863ZM23.6795 1.54412C24.7501 2.16118 25.1665 4.6495 24.4938 7.91264C24.4509 8.12082 24.4027 8.33287 24.3502 8.54792C23.0236 8.24188 21.5831 8.01436 20.075 7.87295C19.1965 6.62273 18.2861 5.4861 17.3722 4.5021C17.6117 4.27139 17.8569 4.04666 18.1076 3.82813C20.4682 1.77539 22.6743 0.964879 23.6795 1.54412ZM16.3999 11.3337C17.9767 11.3337 19.255 12.6111 19.255 14.1868C19.255 15.7625 17.9767 17.0399 16.3999 17.0399C14.8231 17.0399 13.5448 15.7625 13.5448 14.1868C13.5448 12.6111 14.8231 11.3337 16.3999 11.3337Z" fill="#00D8FF"/>
</g>
<defs>
<clipPath id="clip0_674_316">
<rect width="31.9736" height="28.4565" fill="white" transform="translate(0.413086)"/>
</clipPath>
</defs>
</svg>
