<svg width="31" height="29" viewBox="0 0 31 29" fill="none" xmlns="http://www.w3.org/2000/svg">
<g clip-path="url(#clip0_674_310)">
<path d="M21.1898 19.7951C22.2876 19.6811 23.1205 18.7313 23.0826 17.5914C23.0449 16.4516 22.0983 15.5397 20.9626 15.5397H20.8869C19.7132 15.5777 18.8047 16.5655 18.8426 17.7433C18.8804 18.3133 19.1075 18.8072 19.4482 19.1491C18.1611 21.6948 16.1925 23.5565 13.2396 25.1143C11.2331 26.1781 9.15091 26.5581 7.06876 26.2922C5.36511 26.0642 4.04007 25.3044 3.20707 24.0504C1.99569 22.1887 1.88215 20.175 2.90434 18.1613C3.62369 16.7175 4.7593 15.6537 5.47865 15.1217C5.32722 14.6278 5.10003 13.792 4.98649 13.1841C-0.502964 17.1735 0.0649586 22.5687 1.73073 25.1143C2.97999 27.0141 5.51653 28.1919 8.31803 28.1919C9.07514 28.1919 9.83226 28.1159 10.5895 27.926C15.4354 26.9761 19.1076 24.0884 21.1898 19.7951ZM27.8529 15.0838C24.9756 11.7023 20.7355 9.84059 15.8896 9.84059H15.2839C14.9432 9.1567 14.2239 8.7007 13.4289 8.7007H13.3531C12.1796 8.73872 11.2711 9.72653 11.3088 10.9044C11.3467 12.0442 12.2931 12.9561 13.4289 12.9561H13.5045C14.3374 12.9181 15.0568 12.3862 15.3596 11.6643H16.0411C18.9183 11.6643 21.6441 12.5001 24.1049 14.1339C25.9978 15.3877 27.3607 17.0215 28.1178 18.9972C28.7614 20.593 28.7235 22.1507 28.042 23.4806C26.9821 25.4942 25.2028 26.5961 22.8556 26.5961C21.3412 26.5961 19.9026 26.1401 19.1454 25.7982C18.729 26.1781 17.9718 26.786 17.4417 27.1661C19.0697 27.9259 20.7355 28.3439 22.3255 28.3439C25.9599 28.3439 28.6479 26.3301 29.67 24.3164C30.7679 22.1127 30.6921 18.3133 27.8529 15.0838ZM8.62087 20.4409C8.65876 21.5808 9.60518 22.4925 10.7409 22.4925H10.8167C11.9903 22.4546 12.8988 21.4667 12.8609 20.2889C12.8232 19.149 11.8766 18.2372 10.7409 18.2372H10.6653C10.5895 18.2372 10.4758 18.2372 10.4003 18.2752C8.84807 15.6916 8.20449 12.8801 8.43168 9.84047C8.58299 7.5608 9.34022 5.58506 10.6653 3.95126C11.7631 2.54546 13.8831 1.86157 15.3218 1.82367C19.3347 1.74763 21.0382 6.76285 21.1519 8.77662C21.6441 8.89056 22.4769 9.15658 23.0449 9.34657C22.5905 3.19156 18.8047 0 15.1704 0C11.7631 0 8.62087 2.46965 7.37149 6.1171C5.63007 10.9804 6.7658 15.6537 8.88583 19.3391C8.69664 19.605 8.58299 20.0229 8.62087 20.4409Z" fill="#764ABC"/>
</g>
<defs>
<clipPath id="clip0_674_310">
<rect width="29.75" height="28.4565" fill="white" transform="translate(0.576172)"/>
</clipPath>
</defs>
</svg>
