<svg width="35" height="29" viewBox="0 0 35 29" fill="none" xmlns="http://www.w3.org/2000/svg">
<g clip-path="url(#clip0_674_346)">
<path d="M29.9026 16.3795C28.717 16.3863 27.6864 16.7042 26.8236 17.1742C26.5069 16.4761 26.1903 15.8542 26.1345 15.398C26.0723 14.8659 25.9979 14.5411 26.0723 13.9052C26.1469 13.2694 26.4821 12.364 26.4758 12.2949C26.4697 12.2259 26.4013 11.901 25.7185 11.8942C25.0356 11.8872 24.4459 12.0393 24.3776 12.2396C24.3093 12.44 24.1789 12.8962 24.092 13.366C23.974 14.0573 22.7263 16.5244 22.0125 17.8168C21.7827 17.3125 21.5841 16.8701 21.5405 16.5176C21.4785 15.9855 21.4039 15.6607 21.4785 15.0248C21.553 14.389 21.8883 13.4837 21.882 13.4145C21.8758 13.3454 21.8075 13.0206 21.1246 13.0138C20.4417 13.0068 19.8519 13.1589 19.7837 13.3592C19.7154 13.5598 19.6409 14.0296 19.4982 14.4858C19.3553 14.942 17.6978 19.0611 17.2633 20.1252C17.0877 20.5559 16.9035 20.9822 16.7108 21.4038C16.7108 21.4038 16.7045 21.4246 16.6859 21.4591C16.6254 21.5913 16.5633 21.7226 16.4998 21.8531V21.8599C16.4066 22.0466 16.3073 22.2193 16.2576 22.2193C16.2203 22.2193 16.152 21.7217 16.27 21.0444C16.5183 19.6139 17.1081 17.3885 17.1019 17.3125C17.1019 17.271 17.2136 16.884 16.717 16.6835C16.2327 16.4831 16.059 16.8148 16.0154 16.8148C15.972 16.8148 15.9409 16.9323 15.9409 16.9323C15.9409 16.9323 16.4811 14.4305 14.9105 14.4305C13.9297 14.4305 12.5763 15.6261 11.9058 16.7042C11.1436 17.1659 10.3821 17.629 9.62127 18.0934C9.25516 18.3215 8.8764 18.5496 8.52254 18.7637C8.49764 18.7362 8.47288 18.7015 8.44799 18.6739C6.54833 16.414 3.03473 14.8175 3.1837 11.7836C3.23962 10.6778 3.58097 7.77508 9.93174 4.25048C15.1587 1.3823 19.3182 2.177 20.0383 3.93938C21.0687 6.45512 17.8097 11.127 12.4086 11.8042C10.3476 12.06 9.26741 11.1753 8.99436 10.8436C8.70879 10.498 8.66526 10.4773 8.55968 10.5465C8.38595 10.6502 8.49764 10.9612 8.55968 11.1408C8.72117 11.6106 9.38537 12.44 10.509 12.8479C11.5023 13.2072 13.9172 13.4077 16.8411 12.1498C20.1127 10.7399 22.6704 6.82135 21.9193 3.53862C21.168 0.207428 16.2017 -0.891409 11.5023 0.967602C8.70879 2.07355 5.67925 3.81503 3.50029 6.08192C0.911549 8.77714 0.501771 11.1201 0.669383 12.1015C1.27167 15.5846 5.58619 17.8515 7.31198 19.5309C7.22504 19.5862 7.14423 19.6346 7.07607 19.6761C6.21311 20.1529 2.9229 22.0672 2.10347 24.0922C1.17235 26.3867 2.25258 28.0317 2.96643 28.2527C5.18267 28.937 7.46095 27.7068 8.6839 25.6748C9.90684 23.643 9.75787 21.0029 9.19299 19.7935C9.18673 19.7797 9.18061 19.7658 9.16809 19.752C9.39162 19.6069 9.62127 19.4549 9.8448 19.3098C10.2556 19.0394 10.6717 18.779 11.0926 18.5287C10.8815 19.1715 10.7263 19.9386 10.6518 21.0444C10.5587 22.3438 11.0366 24.03 11.6636 24.6934C11.9431 24.9839 12.2721 24.9907 12.4832 24.9907C13.2157 24.9907 13.5448 24.3134 13.911 23.5117C14.358 22.5304 14.7615 21.39 14.7615 21.39C14.7615 21.39 14.2586 24.4724 15.6244 24.4724C16.121 24.4724 16.6239 23.7536 16.8474 23.3873V23.3942C16.8474 23.3942 16.8598 23.3734 16.8847 23.3251C16.9343 23.2353 16.9653 23.1798 16.9653 23.1798V23.1662C17.164 22.7791 17.611 21.9014 18.2752 20.4431C19.1319 18.5634 19.9576 16.2136 19.9576 16.2136C19.9576 16.2136 20.0322 16.7872 20.2866 17.7409C20.4357 18.3007 20.7459 18.9158 20.9943 19.5101C20.7957 19.8212 20.6714 19.9939 20.6714 19.9939L20.6777 20.0009C20.5162 20.2358 20.3425 20.4914 20.15 20.7404C19.4733 21.6387 18.6664 22.6687 18.5545 22.9657C18.4241 23.3181 18.4552 23.5739 18.7036 23.7813C18.8836 23.9333 19.2063 23.9539 19.5354 23.9333C20.1438 23.8849 20.5721 23.719 20.7831 23.6154C21.1122 23.4841 21.4971 23.2836 21.8571 22.9864C22.5214 22.4404 22.9248 21.6595 22.8877 20.6299C22.869 20.0631 22.7014 19.4964 22.4965 18.9641C22.5587 18.8675 22.6145 18.7707 22.6767 18.6739C23.7257 16.9668 24.539 15.0939 24.539 15.0939C24.539 15.0939 24.6136 15.6675 24.868 16.6214C24.9922 17.1051 25.2468 17.6304 25.4702 18.1417C24.4831 19.0333 23.8747 20.0699 23.6575 20.7473C23.2664 22.0051 23.5705 22.5717 24.1479 22.703C24.4086 22.7653 24.7811 22.627 25.0543 22.4957C25.4019 22.3714 25.8117 22.1572 26.2028 21.8391C26.8671 21.2933 27.5064 20.5329 27.4691 19.5033C27.4505 19.0333 27.3388 18.5702 27.1836 18.121C28.0216 17.7341 29.1019 17.5198 30.4799 17.6994C33.435 18.0864 34.0185 20.139 33.9067 21.0031C33.795 21.8668 33.1742 22.3368 32.9695 22.4819C32.7644 22.6272 32.6963 22.6755 32.7149 22.7791C32.7397 22.9311 32.839 22.9243 33.0129 22.8966C33.255 22.8483 34.5649 22.1985 34.6207 20.609C34.7139 18.5771 32.9756 16.3587 29.9026 16.3795ZM7.10709 24.9354C6.12617 26.1241 4.76051 26.5733 4.17074 26.1933C3.53757 25.7854 3.78586 24.03 4.99016 22.7723C5.72265 22.0051 6.66629 21.2931 7.29334 20.8578C7.43605 20.761 7.6472 20.6229 7.90175 20.4501C7.94515 20.4224 7.97004 20.4086 7.97004 20.4086L8.11902 20.3048C8.55968 22.1018 8.13766 23.6845 7.10709 24.9354ZM14.2463 19.5309C13.9048 20.4571 13.1909 22.8275 12.7564 22.6962C12.3839 22.5857 12.1541 20.7888 12.6818 19.0126C12.9488 18.121 13.5136 17.0567 13.8427 16.6421C14.3766 15.9786 14.9664 15.7573 15.1091 16.027C15.2892 16.3795 14.4573 18.9503 14.2463 19.5309ZM20.1376 22.6685C19.9947 22.7515 19.8583 22.8068 19.7961 22.7653C19.7527 22.7376 19.8583 22.627 19.8583 22.627C19.8583 22.627 20.597 21.7425 20.8887 21.3416C21.0565 21.1067 21.255 20.8303 21.4661 20.5192V20.609C21.4661 21.6665 20.5472 22.3783 20.1375 22.6685H20.1376ZM24.6818 21.5144C24.5762 21.4314 24.5948 21.155 24.9487 20.2911C25.0853 19.9524 25.408 19.3858 25.9606 18.8398C26.0227 19.0609 26.0662 19.2752 26.0599 19.4756C26.0537 20.8095 25.1971 21.307 24.6818 21.5144Z" fill="#CD6799"/>
</g>
<defs>
<clipPath id="clip0_674_346">
<rect width="34.0816" height="28.4565" fill="white" transform="translate(0.576172)"/>
</clipPath>
</defs>
</svg>
