<svg width="49" height="34" viewBox="0 0 49 34" fill="none" xmlns="http://www.w3.org/2000/svg">
<g clip-path="url(#clip0_947_668)">
<path d="M24.5 2C17.9667 2 13.8833 5.23514 12.25 11.7052C14.7 8.47009 17.5583 7.25693 20.825 8.06576C22.6887 8.52714 24.0209 9.86635 25.4955 11.3485C27.8977 13.7632 30.6776 16.5578 36.75 16.5578C43.2833 16.5578 47.3667 13.3227 49 6.85261C46.55 10.0877 43.6917 11.3009 40.425 10.4921C38.5613 10.0307 37.2291 8.69149 35.7545 7.20935C33.3523 4.79461 30.5724 2 24.5 2ZM12.25 16.5578C5.71673 16.5578 1.63327 19.793 0 26.2631C2.45 23.0279 5.30827 21.8148 8.575 22.6236C10.4387 23.085 11.7709 24.4242 13.2455 25.9063C15.6477 28.3211 18.4276 31.1157 24.5 31.1157C31.0333 31.1157 35.1167 27.8805 36.75 21.4104C34.3 24.6456 31.4417 25.8587 28.175 25.0499C26.3113 24.5885 24.9791 23.2493 23.5045 21.7672C21.1023 19.3524 18.3224 16.5578 12.25 16.5578Z" fill="url(#paint0_linear_947_668)"/>
</g>
<defs>
<linearGradient id="paint0_linear_947_668" x1="-136.122" y1="933.701" x2="4075.21" y2="3385.59" gradientUnits="userSpaceOnUse">
<stop stop-color="#2298BD"/>
<stop offset="1" stop-color="#0ED7B5"/>
</linearGradient>
<clipPath id="clip0_947_668">
<rect width="49" height="29.1915" fill="white" transform="translate(0 2)"/>
</clipPath>
</defs>
</svg>
