<svg width="49" height="29" viewBox="0 0 49 29" fill="none" xmlns="http://www.w3.org/2000/svg">
<g clip-path="url(#clip0_674_331)">
<path d="M24.3717 0C18.0263 0 14.0602 3.15368 12.4739 9.46087C14.8535 6.30718 17.6296 5.12458 20.8024 5.91304C22.6125 6.3628 23.9064 7.66829 25.3386 9.11311C27.6717 11.4671 30.3717 14.1913 36.2695 14.1913C42.6149 14.1913 46.5809 11.0376 48.1673 4.73043C45.7877 7.88412 43.0116 9.06673 39.8388 8.27826C38.0287 7.8285 36.7348 6.52301 35.3026 5.0782C32.9695 2.72425 30.2695 0 24.3717 0ZM12.4739 14.1913C6.12853 14.1913 2.16248 17.345 0.576172 23.6522C2.95573 20.4985 5.73181 19.3159 8.90461 20.1043C10.7147 20.5541 12.0086 21.8596 13.4408 23.3044C15.7739 25.6584 18.4739 28.3826 24.3717 28.3826C30.7171 28.3826 34.6832 25.2289 36.2695 18.9217C33.8899 22.0754 31.1138 23.258 27.941 22.4696C26.1309 22.0198 24.837 20.7143 23.4048 19.2695C21.0718 16.9156 18.3717 14.1913 12.4739 14.1913Z" fill="url(#paint0_linear_674_331)"/>
</g>
<defs>
<linearGradient id="paint0_linear_674_331" x1="-131.632" y1="908.243" x2="3966.2" y2="3285.3" gradientUnits="userSpaceOnUse">
<stop stop-color="#2298BD"/>
<stop offset="1" stop-color="#0ED7B5"/>
</linearGradient>
<clipPath id="clip0_674_331">
<rect width="47.5911" height="28.4565" fill="white" transform="translate(0.576172)"/>
</clipPath>
</defs>
</svg>
